<svg width="80" height="80" viewBox="0 0 80 80" fill="none" xmlns="http://www.w3.org/2000/svg">
<g clip-path="url(#clip0_838_566)">
<path fill-rule="evenodd" clip-rule="evenodd" d="M39.7569 7.04793e-07C47.6222 -0.00148426 55.3113 2.34362 61.8516 6.73872C68.392 11.1338 73.4899 17.3815 76.5005 24.6915C79.5111 32.0015 80.2992 40.0456 78.7651 47.8063C77.231 55.5669 73.4437 62.6956 67.8821 68.2907C62.3205 73.8858 55.2344 77.6959 47.5202 79.2392C39.806 80.7825 31.8101 79.9897 24.5438 76.961C17.2775 73.9322 11.0672 68.8037 6.6984 62.224C2.3296 55.6442 -0.00147538 47.9089 7.00576e-07 39.9962C7.00576e-07 29.3886 4.18866 19.2154 11.6445 11.7146C19.1004 4.21388 29.2127 7.04793e-07 39.7569 7.04793e-07Z" fill="white"/>
<path d="M39.757 2.29001C47.1721 2.28852 54.421 4.49932 60.5871 8.64279C66.7531 12.7863 71.5592 18.6763 74.3975 25.5679C77.2358 32.4595 77.9788 40.0431 76.5326 47.3595C75.0863 54.676 71.5158 61.3966 66.2725 66.6714C61.0293 71.9462 54.3489 75.5383 47.0762 76.9932C39.8035 78.4482 32.2653 77.7007 25.4149 74.8453C18.5646 71.9899 12.7098 67.1549 8.59114 60.9517C4.47246 54.7486 2.27489 47.456 2.27637 39.9963C2.27637 29.9959 6.22521 20.4052 13.2542 13.3339C20.2832 6.26262 29.8165 2.29001 39.757 2.29001ZM39.757 22.5622C43.1913 22.5637 46.5481 23.5899 49.4025 25.5112C52.257 27.4324 54.4808 30.1622 55.7927 33.3552C57.1046 36.5482 57.4455 40.061 56.7724 43.449C56.0993 46.837 54.4425 49.9481 52.0114 52.3885C49.5803 54.829 46.4843 56.4892 43.1151 57.159C39.7459 57.8289 36.255 57.4783 33.0839 56.1516C29.9128 54.825 27.2041 52.5819 25.3005 49.7062C23.3969 46.8304 22.384 43.4513 22.3899 39.9963C22.3889 37.7016 22.8375 35.4292 23.7099 33.309C24.5823 31.1888 25.8616 29.2623 27.4744 27.6398C29.0873 26.0172 31.0022 24.7303 33.1097 23.8526C35.2173 22.9749 37.476 22.5237 39.757 22.5246V22.5622Z" fill="#057EB6"/>
<path fill-rule="evenodd" clip-rule="evenodd" d="M39.7569 4.04694C49.2349 4.04694 58.3248 7.8342 65.0275 14.5758C71.7301 21.3174 75.4966 30.4612 75.4986 39.9963V40.1314H58.5271V39.9963C58.4291 35.0523 56.4081 30.3442 52.898 26.8826C49.3878 23.4211 44.6685 21.4822 39.7532 21.4822C34.8379 21.4822 30.1185 23.4211 26.6084 26.8826C23.0983 30.3442 21.0773 35.0523 20.9793 39.9963V40.1314H4.02271V39.9963C4.02271 30.4619 7.78755 21.3181 14.489 14.5762C21.1905 7.83444 30.2796 4.04694 39.7569 4.04694Z" fill="white"/>
<g style="mix-blend-mode:multiply" opacity="0.3">
<path d="M61.8557 30.7161L68.6175 28.7865L70.028 33.7869L69.4309 33.9596L68.8339 34.1248L67.8189 30.5434L66.4232 30.9564L67.3636 34.2825L66.7815 34.4477L66.1993 34.6129L65.259 31.2867L63.4379 31.7973L64.4903 35.5514L63.9007 35.7241L63.2961 35.8968L61.8557 30.7161ZM58.2136 24.9122L57.8255 24.3491L57.4225 23.786L63.1543 19.6865L63.6021 20.3172L64.0425 20.9479L61.6542 26.1361L65.6769 23.2755L66.0725 23.8386L66.4755 24.4017L60.7437 28.5012L60.3183 27.9005L59.8929 27.2999L62.3483 21.969L58.2136 24.9122ZM54.2058 21.1131L58.5495 15.5495L59.1241 16.0075L59.7063 16.4655L55.3627 22.0291L54.788 21.5711L54.2058 21.1131ZM48.0934 17.6818L50.9742 11.2623L51.6459 11.5701L52.3176 11.8705L49.9294 17.1788L53.1162 18.6279L52.8625 19.191L52.6012 19.7691L48.0934 17.6818ZM42.0108 12.3435L43.6975 12.5612C43.997 12.6212 44.3078 12.5761 44.5782 12.4336C44.685 12.3586 44.7734 12.2601 44.8368 12.1457C44.9001 12.0312 44.9368 11.9037 44.9439 11.7729C44.9729 11.6423 44.9718 11.5067 44.9407 11.3766C44.9097 11.2465 44.8495 11.1252 44.7648 11.0221C44.5633 10.8245 44.299 10.7048 44.0185 10.6842L42.2273 10.5115L42.0108 12.3435ZM40.0555 16.0976L40.9361 9.07742L41.6825 9.17503L44.4737 9.52792C45.0617 9.5753 45.6105 9.84329 46.0112 10.2787C46.1886 10.4815 46.3188 10.7215 46.3924 10.9812C46.466 11.241 46.4811 11.514 46.4366 11.7804C46.4176 12.0715 46.3236 12.3526 46.164 12.5961C46.0044 12.8396 45.7845 13.0372 45.526 13.1694C45.3893 13.241 45.2438 13.294 45.0932 13.3271L45.3171 13.4697C45.5012 13.6226 45.6412 13.8223 45.7226 14.0481C45.804 14.2739 45.8237 14.5176 45.7798 14.7536L45.6678 15.9099C45.6388 16.0738 45.6388 16.2415 45.6678 16.4054C45.7028 16.5141 45.7775 16.6054 45.8768 16.6607V16.8484L44.2722 16.6457C44.234 16.4886 44.2189 16.3267 44.2274 16.1652C44.2274 15.9174 44.2274 15.6621 44.2797 15.4144L44.3543 14.7611C44.3793 14.6364 44.3747 14.5076 44.341 14.385C44.3073 14.2624 44.2454 14.1495 44.1603 14.0554C43.9137 13.8488 43.6075 13.7277 43.2871 13.71L41.7944 13.5223L41.4959 16.2928L40.7495 16.1952L40.0555 16.0976ZM32.4877 17.3665L30.9055 10.5115L35.9432 9.34021L36.0775 9.94838L36.2193 10.5565L32.6146 11.3599L32.9504 12.8165L36.3014 12.0657L36.4358 12.6588L36.5701 13.2595L33.2191 14.0103L33.637 15.8123L37.3687 14.9338L37.5105 15.542L37.6448 16.1577L32.4877 17.3665ZM21.7331 14.9564L22.4122 14.5584L23.0914 14.168L27.1067 18.0798L25.7633 12.6138L26.4126 12.2384L27.0768 11.8555L28.5172 19.1835L27.9127 19.5213L27.3082 19.8667L21.7331 14.9564ZM21.1733 25.3177L16.0834 20.4373L16.5909 19.9043L17.0984 19.3712L21.2853 23.3881L23.6959 20.8428L24.1437 21.2708L24.599 21.7062L21.1733 25.3177ZM19.1209 28.6288L13.0234 25.1075L13.3891 24.4693L13.7548 23.8236L19.8523 27.3524L19.4866 27.9906L19.1209 28.6288ZM12.7324 30.9263C12.5781 30.8921 12.4182 30.8932 12.2645 30.9296C12.1107 30.966 11.9671 31.0367 11.8442 31.1366C11.5613 31.3781 11.3625 31.7043 11.277 32.0676C11.1752 32.3617 11.1752 32.6819 11.277 32.9761C11.3263 33.099 11.4042 33.2082 11.5042 33.2944C11.6042 33.3807 11.7234 33.4415 11.8517 33.4716C11.9529 33.5007 12.0605 33.4984 12.1604 33.4649C12.2603 33.4314 12.3478 33.3683 12.4114 33.2839C12.7024 32.9036 12.9526 32.4934 13.1578 32.0601C13.464 31.3815 13.915 30.7791 14.4788 30.2956C14.7053 30.1709 14.956 30.0969 15.2137 30.0788C15.4713 30.0606 15.7298 30.0987 15.9714 30.1905C16.2682 30.2654 16.5421 30.4129 16.7686 30.6198C16.9952 30.8268 17.1674 31.0868 17.27 31.3768C17.5062 32.0909 17.5062 32.8627 17.27 33.5767C17.1062 34.3094 16.6947 34.9622 16.1058 35.4237C15.8302 35.6119 15.5163 35.7358 15.1871 35.7864C14.8579 35.8371 14.5215 35.8132 14.2026 35.7166L14.5907 34.3426C14.7477 34.3908 14.9137 34.4016 15.0756 34.3742C15.2375 34.3469 15.3909 34.2821 15.5236 34.1849C15.8183 33.946 16.0214 33.6116 16.0983 33.2388C16.221 32.8793 16.2493 32.4939 16.1804 32.1201C16.1534 31.9924 16.0938 31.874 16.0074 31.7766C15.921 31.6791 15.8109 31.6061 15.6878 31.5645C15.5796 31.5273 15.4637 31.5187 15.3512 31.5398C15.2388 31.5608 15.1336 31.6107 15.046 31.6846C14.7605 31.9901 14.5261 32.34 14.3519 32.7208C14.0148 33.4488 13.5438 34.1061 12.9637 34.6579C12.7536 34.8008 12.5125 34.891 12.2606 34.9211C12.0087 34.9511 11.7534 34.9201 11.5159 34.8306C11.214 34.7566 10.9334 34.613 10.6963 34.411C10.4593 34.209 10.2722 33.9542 10.1501 33.6668C9.90798 32.9872 9.90798 32.2441 10.1501 31.5645C10.3108 30.887 10.7081 30.2902 11.2696 29.8827C11.5364 29.7001 11.8383 29.5758 12.1558 29.5176C12.4732 29.4594 12.7993 29.4687 13.113 29.5448L12.7324 30.9263Z" fill="#231F20"/>
</g>
<path d="M61.7288 30.6185L68.498 28.6814L69.9086 33.6893L69.3115 33.862L68.7145 34.0272L67.6994 30.4458L66.2665 30.8588L67.2069 34.1849L66.6247 34.3501L66.0351 34.5153L65.1022 31.1891L63.326 31.6922L64.3857 35.4463L63.7887 35.619L63.1916 35.7916L61.7288 30.6185ZM58.0793 24.8146L57.6837 24.2515L57.2882 23.6884L63.02 19.5889L63.4603 20.2196L63.9081 20.8503L61.5198 26.0385L65.5426 23.1628L65.9381 23.726L66.3337 24.2891L60.6093 28.3886L60.1839 27.7879L59.7585 27.1872L62.2139 21.8564L58.0793 24.8146ZM54.0715 21.023L58.4151 15.4594L58.9898 15.9174L59.5645 16.3754L55.2283 21.9315L54.6536 21.4735L54.0715 21.023ZM47.9591 17.5917L50.8548 11.1422L51.5265 11.4425L52.1907 11.7504L49.8099 17.0587L52.9893 18.5002L52.7356 19.0634L52.4743 19.6415L47.9591 17.5917ZM41.8765 12.2534L43.5632 12.4711C43.8602 12.5312 44.1687 12.4861 44.4364 12.3435C44.5454 12.2701 44.6358 12.1722 44.7006 12.0575C44.7654 11.9428 44.8027 11.8145 44.8095 11.6828C44.8393 11.5517 44.8378 11.4154 44.8054 11.2849C44.773 11.1545 44.7105 11.0336 44.623 10.932C44.4226 10.7328 44.1577 10.6128 43.8766 10.5941L42.1302 10.3688L41.8765 12.2534ZM39.9211 16.0075L40.8018 9.00986L41.5481 9.10746L44.3394 9.46035C44.9277 9.50628 45.477 9.77452 45.8768 10.2112C46.0569 10.4124 46.1894 10.652 46.2643 10.9121C46.3393 11.1721 46.3548 11.4459 46.3097 11.7128C46.2964 12.0007 46.2098 12.2803 46.0582 12.5249C45.9066 12.7694 45.6951 12.9707 45.4439 13.1093C45.3067 13.1798 45.1613 13.2328 45.0111 13.267C45.0865 13.3093 45.1588 13.357 45.2275 13.4097C45.4136 13.5612 45.5555 13.7605 45.6383 13.9865C45.7211 14.2125 45.7416 14.4568 45.6977 14.6936L45.5857 15.8498C45.5615 16.0141 45.5615 16.1811 45.5857 16.3454C45.6237 16.4523 45.6976 16.5426 45.7947 16.6007V16.7884L44.1528 16.5181C44.1145 16.361 44.0995 16.1991 44.108 16.0375C44.1126 15.7865 44.13 15.5359 44.1602 15.2867L44.2349 14.6335C44.2598 14.5088 44.2553 14.3799 44.2216 14.2573C44.1878 14.1347 44.1259 14.0218 44.0408 13.9277C43.7925 13.7335 43.4895 13.6231 43.1751 13.6124L41.7272 13.4247L41.3764 16.1952L40.6301 16.0976L39.9211 16.0075ZM32.3608 17.2689L30.7786 10.3764L35.8238 9.20507L35.9656 9.81324L36.1074 10.4214L32.4951 11.2623L32.8384 12.7189L36.1895 11.9681L36.3238 12.5612L36.4656 13.1619L33.1146 13.9127L33.5325 15.7147L37.3164 14.8362L37.4507 15.4444L37.5926 16.0601L32.3608 17.2689ZM21.6435 14.8588L22.3227 14.4608L22.9944 14.0704L26.9872 18.0197L25.6513 12.5537L26.3006 12.1783L26.9574 11.7954L28.3605 19.0934L27.7559 19.4463L27.1514 19.7916L21.6435 14.8588ZM21.0838 25.2201L15.9938 20.3397L16.5013 19.8067L17.0088 19.2736L21.1659 23.2755L23.5765 20.7302L24.0243 21.1581L24.4796 21.5861L21.0838 25.2201ZM18.994 28.5312L12.904 25.0099L13.2622 24.3717L13.6354 23.726L19.7254 27.2548L19.3672 27.893L18.994 28.5312ZM12.6055 30.8287C12.4524 30.7945 12.2937 30.7957 12.1411 30.8321C11.9886 30.8685 11.8463 30.9392 11.7248 31.0389C11.4556 31.2858 11.2703 31.6115 11.1949 31.97C11.0895 32.2635 11.0895 32.5849 11.1949 32.8785C11.2441 33.0014 11.3221 33.1106 11.4221 33.1968C11.5221 33.2831 11.6413 33.3439 11.7696 33.374C11.8708 33.4031 11.9784 33.4008 12.0783 33.3673C12.1782 33.3338 12.2657 33.2707 12.3293 33.1863C12.6203 32.806 12.8705 32.3958 13.0757 31.9625C13.3819 31.2839 13.8329 30.6815 14.3967 30.198C14.6232 30.0733 14.8739 29.9993 15.1316 29.9812C15.3892 29.963 15.6477 30.0011 15.8893 30.0929C16.1861 30.1678 16.46 30.3153 16.6865 30.5222C16.913 30.7292 17.0853 30.9892 17.1879 31.2792C17.4241 31.9933 17.4241 32.7651 17.1879 33.4791C17.0218 34.2109 16.6107 34.863 16.0237 35.3261C15.7471 35.5154 15.432 35.6399 15.1014 35.6906C14.7708 35.7413 14.433 35.7168 14.1131 35.619L14.5011 34.245C14.6595 34.2927 14.8265 34.3032 14.9895 34.2759C15.1525 34.2486 15.3071 34.1841 15.4415 34.0873C15.7339 33.8463 15.9364 33.5129 16.0162 33.1412C16.1389 32.7817 16.1671 32.3963 16.0983 32.0225C16.0752 31.892 16.0161 31.7707 15.9276 31.6724C15.8392 31.5742 15.725 31.5029 15.5982 31.4669C15.4913 31.4296 15.3764 31.421 15.2652 31.4421C15.1539 31.4631 15.05 31.5131 14.9639 31.587C14.6778 31.8936 14.4411 32.2432 14.2623 32.6232C13.9254 33.3447 13.4542 33.9947 12.8741 34.5378C12.664 34.6807 12.4229 34.7709 12.171 34.801C11.9192 34.831 11.6638 34.8 11.4263 34.7105C11.1255 34.636 10.8462 34.4921 10.6104 34.2901C10.3746 34.088 10.1889 33.8335 10.068 33.5467C9.82273 32.8676 9.82273 32.1234 10.068 31.4444C10.2345 30.7716 10.6341 30.1806 11.1949 29.7776C11.4631 29.598 11.7652 29.476 12.0824 29.4191C12.3996 29.3623 12.725 29.3718 13.0383 29.4472L12.6055 30.8287Z" fill="#057EB6"/>
<g style="mix-blend-mode:multiply" opacity="0.4">
<path d="M66.0724 58.4289L59.9301 54.9826L60.2884 54.3369L60.6466 53.6912L65.6769 56.5293L67.3785 53.451L67.9158 53.7588L68.4607 54.0591L66.0724 58.4289ZM57.4672 59.6302L58.542 62.4158L59.9824 61.2295L57.4672 59.6302ZM58.3778 65.9972L55.8328 58.947L56.4896 58.3989L57.1463 57.8583L63.5349 61.7325L62.9378 62.2281L62.3333 62.7236L61.0571 61.9202L58.9972 63.6246L59.5495 65.0286L58.9674 65.5092L58.3778 65.9972ZM52.2429 69.3834L49.9443 64.0375L47.9963 64.886L47.7501 64.3153L47.5038 63.7372L52.7281 61.4848L52.9744 62.0554L53.2206 62.6335L51.2727 63.4819L53.5714 68.8203L52.8997 69.1131L52.2429 69.3834ZM45.0707 71.4707L43.7348 64.5181L44.4811 64.3829L45.2275 64.2478L46.5335 71.2004L45.7872 71.3355L45.0707 71.4707ZM37.3089 67.9944L38.5329 68.092C38.8604 68.1413 39.1946 68.0693 39.4733 67.8893C39.5891 67.7901 39.6824 67.6671 39.7468 67.5284C39.8112 67.3898 39.8452 67.2389 39.8464 67.0859C39.8628 66.9496 39.8484 66.8114 39.8045 66.6814C39.7606 66.5515 39.6882 66.4331 39.5927 66.3351C39.3413 66.1247 39.0241 66.0103 38.6971 66.0122L37.4731 65.9146L37.3089 67.9944ZM35.555 71.6133L36.0625 64.5706L36.8089 64.6232L39.0479 64.7959C39.7081 64.8046 40.3424 65.0556 40.8316 65.5016C41.0317 65.7313 41.1794 66.0021 41.2645 66.2952C41.3496 66.5884 41.37 66.8966 41.3242 67.1985C41.3211 67.5164 41.2532 67.8304 41.1249 68.1209C40.9965 68.4115 40.8103 68.6725 40.5778 68.8878C40.0341 69.2743 39.3624 69.4331 38.7045 69.3308L37.2119 69.2257L37.0178 71.7335L36.2715 71.6734L35.555 71.6133ZM31.6891 65.6443C31.7381 65.4939 31.7535 65.3345 31.7342 65.1774C31.7148 65.0204 31.6612 64.8696 31.5771 64.7358C31.3661 64.4282 31.0627 64.1966 30.7114 64.0751C30.4304 63.9393 30.1115 63.9048 29.8083 63.9775C29.6823 64.0148 29.5671 64.0821 29.4723 64.1735C29.3775 64.265 29.3059 64.378 29.2635 64.5031C29.2265 64.6014 29.2187 64.7085 29.2413 64.8111C29.2638 64.9138 29.3156 65.0077 29.3904 65.0812C29.7361 65.4184 30.1164 65.7179 30.5248 65.9747C31.1636 66.3495 31.7117 66.8624 32.1294 67.4763C32.2286 67.7156 32.2753 67.9737 32.2663 68.2329C32.2573 68.492 32.1927 68.7462 32.0772 68.9779C31.9717 69.2668 31.7975 69.5252 31.5698 69.7307C31.3421 69.9362 31.0679 70.0825 30.7711 70.1567C30.0395 70.3116 29.2778 70.2247 28.5993 69.909C27.8871 69.6881 27.2745 69.2232 26.8678 68.595C26.7127 68.2986 26.6236 67.9718 26.6069 67.6372C26.5901 67.3027 26.646 66.9685 26.7708 66.6579L28.0918 67.1835C28.0284 67.3364 28.0009 67.5019 28.0112 67.6672C28.0216 67.8326 28.0696 67.9933 28.1515 68.137C28.3574 68.4559 28.6655 68.6943 29.0247 68.8128C29.3704 68.9711 29.7505 69.0382 30.1292 69.008C30.2596 69 30.3851 68.9549 30.4908 68.8777C30.5966 68.8006 30.6783 68.6947 30.7263 68.5725C30.7752 68.4689 30.7967 68.3544 30.7889 68.24C30.781 68.1256 30.7441 68.0152 30.6815 67.9193C30.4051 67.6047 30.083 67.3338 29.7262 67.1159C29.0374 66.7059 28.4341 66.1653 27.95 65.5242C27.8284 65.2928 27.7649 65.035 27.7649 64.7733C27.7649 64.5116 27.8284 64.2539 27.95 64.0225C28.0549 63.7274 28.227 63.461 28.4525 63.2446C28.678 63.0282 28.9506 62.8678 29.2486 62.7762C29.9408 62.5933 30.6747 62.6597 31.3234 62.9639C31.9715 63.2119 32.5092 63.6863 32.8384 64.3003C32.9898 64.5863 33.0806 64.9008 33.105 65.2239C33.1294 65.547 33.0869 65.8717 32.9802 66.1774L31.6891 65.6443ZM20.4941 63.8423C20.6992 64.0123 20.9415 64.1308 21.2009 64.1882C21.4604 64.2457 21.7297 64.2403 21.9868 64.1727C22.5966 63.9779 23.1228 63.5809 23.4794 63.0465C23.9 62.5462 24.1463 61.9213 24.181 61.267C24.1722 60.9964 24.1034 60.7312 23.9796 60.4908C23.8559 60.2504 23.6803 60.0409 23.4656 59.8775C23.251 59.7141 23.0029 59.6011 22.7392 59.5466C22.4756 59.4921 22.2032 59.4976 21.942 59.5627C21.3303 59.7739 20.8054 60.1832 20.4494 60.7264C20.0353 61.214 19.7961 61.8275 19.7702 62.4683C19.7702 62.7306 19.8309 62.9893 19.9475 63.2238C20.0641 63.4584 20.2333 63.6624 20.4419 63.8198L20.4941 63.8423ZM19.7478 64.8334C19.3747 64.5766 19.06 64.243 18.8245 63.8547C18.5891 63.4664 18.4383 63.0323 18.382 62.5809C18.319 61.596 18.6373 60.6247 19.2702 59.8705C19.8259 59.0381 20.6781 58.4521 21.6509 58.2337C22.1037 58.1504 22.5691 58.1685 23.0141 58.2866C23.4591 58.4047 23.8728 58.6199 24.2258 58.9169C24.5922 59.1798 24.8979 59.5191 25.122 59.9118C25.3462 60.3044 25.4834 60.7411 25.5244 61.1919C25.5812 62.1888 25.2613 63.1704 24.6288 63.9399C24.0834 64.7586 23.2431 65.3321 22.2853 65.5392C21.8274 65.6197 21.3576 65.5982 20.9088 65.4763C20.4601 65.3543 20.0434 65.1349 19.6881 64.8334H19.7478ZM11.4934 54.3219L17.464 50.5678L17.8596 51.191L18.2477 51.8217L16.0087 53.2332L17.5014 55.5758L19.7403 54.1642L20.1284 54.7874L20.524 55.4106L14.5534 59.1647L14.0832 58.5641L13.6876 57.9409L16.4192 56.229L14.9265 53.8939L12.2323 55.5983L11.8442 54.9751L11.4934 54.3219Z" fill="#231F20"/>
</g>
<path fill-rule="evenodd" clip-rule="evenodd" d="M39.7569 22.7424C43.1519 22.7424 46.4707 23.7552 49.2935 25.6527C52.1164 27.5502 54.3166 30.2473 55.6158 33.4027C56.915 36.5582 57.2549 40.0304 56.5926 43.3802C55.9303 46.7301 54.2954 49.8071 51.8947 52.2222C49.4941 54.6373 46.4355 56.282 43.1057 56.9483C39.7759 57.6147 36.3245 57.2727 33.1879 55.9656C30.0513 54.6586 27.3704 52.4452 25.4842 49.6053C23.5981 46.7655 22.5913 43.4267 22.5913 40.0113C22.5913 35.4313 24.3998 31.0389 27.619 27.8003C30.8381 24.5618 35.2043 22.7424 39.7569 22.7424Z" fill="white"/>
<path fill-rule="evenodd" clip-rule="evenodd" d="M46.8246 44.0432C46.4365 40.717 43.0482 38.6448 39.7718 38.6448C37.5328 38.6448 35.8237 37.1431 35.7416 34.4026V33.7869C35.7183 33.2413 35.8049 32.6966 35.9963 32.1856C36.1878 31.6745 36.48 31.2077 36.8555 30.8134C37.231 30.419 37.682 30.1051 38.1813 29.8907C38.6805 29.6763 39.2178 29.5657 39.7606 29.5657C40.3035 29.5657 40.8407 29.6763 41.34 29.8907C41.8392 30.1051 42.2902 30.419 42.6657 30.8134C43.0412 31.2077 43.3335 31.6745 43.5249 32.1856C43.7163 32.6966 43.803 33.2413 43.7796 33.7869V35.9568H49.9517V44.0432H46.8246ZM32.6444 35.9568C32.7563 39.5457 36.3089 41.8057 39.727 41.8057C41.966 41.8057 43.7647 43.4125 43.7647 46.2506C43.7155 47.2927 43.2681 48.2755 42.5159 48.9937C41.7637 49.712 40.7649 50.1103 39.7278 50.1054C38.6908 50.1006 37.6956 49.693 36.9501 48.9677C36.2046 48.2425 35.7663 47.2556 35.7267 46.213V44.0432H29.562V35.9568H32.6444ZM32.4354 26.7067H47.0634V32.6457H52.9893V47.3468H47.0634V53.3083H32.4503V47.3468H26.5469V32.6457H32.4503L32.4354 26.7067Z" fill="#057EB6"/>
<path d="M65.9381 58.2037L59.7958 54.7574L60.1541 54.1192L60.5123 53.466L65.5724 56.3116L67.2666 53.2332L67.8114 53.5411L68.3562 53.8489L65.9381 58.2037ZM57.3479 59.405L58.4151 62.198L59.863 61.0042L57.3479 59.405ZM58.2584 65.7719L55.7134 58.7217L56.3702 58.1736L57.0269 57.633L63.4379 61.5073L62.8334 62.0028L62.2363 62.4984L60.9601 61.695L58.8928 63.3993L59.4525 64.8034L58.8629 65.2839L58.2584 65.7719ZM52.0788 69.1581L49.7801 63.8198L47.8247 64.6682L47.5784 64.0976L47.3321 63.527L52.5564 61.2745L52.8027 61.8451L53.049 62.4233L51.1235 63.2267L53.4222 68.5725L52.7579 68.8653L52.0788 69.1581ZM44.9066 71.2454L43.6005 64.2928L44.3468 64.1577L45.0931 64.0225L46.3918 70.9751L45.6454 71.1103L44.9066 71.2454ZM37.1447 67.7691L38.3613 67.8667C38.6911 67.9152 39.0274 67.8433 39.3091 67.664C39.4246 67.5667 39.5172 67.4448 39.5805 67.3072C39.6437 67.1696 39.6759 67.0197 39.6748 66.8681C39.6926 66.7324 39.6798 66.5944 39.6371 66.4644C39.5945 66.3343 39.5232 66.2157 39.4285 66.1173C39.171 65.9128 38.8536 65.7993 38.5255 65.7945L37.3164 65.6668L37.1447 67.7691ZM35.3909 71.3881L35.9357 64.3379L36.682 64.3904L38.8837 64.5631C39.5485 64.5803 40.1825 64.8483 40.66 65.3139C40.8599 65.5423 41.0081 65.8117 41.0945 66.1033C41.1808 66.395 41.2032 66.7021 41.16 67.0033C41.1615 67.322 41.0957 67.6373 40.967 67.9285C40.8384 68.2197 40.6498 68.4802 40.4137 68.6926C39.8723 69.0783 39.2042 69.2396 38.5478 69.1431C37.9806 69.0906 37.4881 69.0605 37.0552 69.038L36.8611 71.5382L36.1148 71.4857L35.3909 71.3881ZM31.5174 65.3815C31.5703 65.2318 31.5878 65.0717 31.5683 64.9139C31.5489 64.7562 31.4931 64.6052 31.4055 64.473C31.196 64.1687 30.8953 63.9398 30.5472 63.8198C30.2661 63.6846 29.9474 63.6501 29.6441 63.7222C29.5176 63.7584 29.4018 63.8252 29.3068 63.9169C29.2118 64.0085 29.1406 64.1221 29.0993 64.2478C29.0603 64.3458 29.0515 64.4534 29.0741 64.5565C29.0968 64.6596 29.1498 64.7535 29.2262 64.8259C29.5668 65.166 29.9449 65.4658 30.3532 65.7194C30.9921 66.0969 31.542 66.6092 31.9652 67.221C32.0644 67.4604 32.1111 67.7184 32.1021 67.9776C32.0931 68.2367 32.0286 68.4909 31.913 68.7227C31.8162 69.0249 31.645 69.2977 31.4153 69.5156C31.1857 69.7335 30.905 69.8894 30.5994 69.969C29.8654 70.1234 29.1015 70.0366 28.4202 69.7213C27.7137 69.4841 27.1118 69.0061 26.7185 68.3698C26.5634 68.0734 26.4744 67.7465 26.4576 67.412C26.4409 67.0774 26.4968 66.7432 26.6215 66.4327L27.9425 66.9657C27.8793 67.1174 27.8518 67.2817 27.8621 67.4458C27.8725 67.6099 27.9204 67.7694 28.0022 67.9118C28.2044 68.2341 28.5139 68.4736 28.8754 68.5875C29.2183 68.7471 29.5957 68.8169 29.9725 68.7902C30.1111 68.7837 30.2446 68.7359 30.3561 68.6531C30.4677 68.5702 30.5524 68.456 30.5994 68.3247C30.6505 68.2217 30.6733 68.1068 30.6655 67.992C30.6576 67.8771 30.6193 67.7665 30.5547 67.6715C30.28 67.355 29.9577 67.0839 29.5994 66.8681C28.9083 66.4742 28.2999 65.9489 27.8082 65.3214C27.6866 65.0901 27.6231 64.8323 27.6231 64.5706C27.6231 64.3089 27.6866 64.0512 27.8082 63.8198C27.9145 63.5279 28.0874 63.2652 28.3129 63.0527C28.5385 62.8401 28.8103 62.6837 29.1068 62.596C29.8006 62.4109 30.5368 62.4746 31.189 62.7762C31.8437 63.0095 32.3941 63.4701 32.7414 64.0751C32.8911 64.3618 32.9804 64.6765 33.0035 64.9995C33.0266 65.3225 32.9831 65.6468 32.8757 65.9521L31.5174 65.3815ZM20.3225 63.5795C20.5282 63.7484 20.7704 63.8663 21.0297 63.9237C21.289 63.9811 21.558 63.9763 21.8152 63.9099C22.4261 63.7173 22.953 63.3198 23.3078 62.7837C23.7446 62.2894 24.0069 61.6639 24.0541 61.0042C24.0503 60.7293 23.9805 60.4594 23.8505 60.2175C23.7206 59.9757 23.5344 59.769 23.3078 59.6152C23.102 59.4468 22.8592 59.3302 22.5995 59.2754C22.3399 59.2205 22.0709 59.2289 21.8152 59.2999C21.2034 59.5111 20.6785 59.9204 20.3225 60.4636C19.9067 60.9509 19.665 61.5641 19.6359 62.2055C19.6295 62.4774 19.6869 62.747 19.8037 62.9922C19.9204 63.2375 20.093 63.4516 20.3076 63.6171L20.3225 63.5795ZM19.5762 64.5781C19.202 64.3224 18.8866 63.9891 18.651 63.6006C18.4155 63.2121 18.2652 62.7774 18.2104 62.3257C18.1482 61.3408 18.4664 60.3698 19.0985 59.6152C19.6586 58.7871 20.509 58.2025 21.4793 57.9784C21.932 57.8957 22.3973 57.914 22.8422 58.0321C23.2872 58.1501 23.7009 58.365 24.0541 58.6617C24.4275 58.9281 24.7389 59.2728 24.967 59.672C25.195 60.0713 25.3343 60.5155 25.3751 60.9742C25.4214 61.9747 25.091 62.956 24.4497 63.7222C23.9067 64.5366 23.0728 65.1093 22.1212 65.3214C21.6691 65.3963 21.2063 65.372 20.7645 65.2502C20.3226 65.1283 19.9122 64.9119 19.5612 64.6157L19.5762 64.5781ZM11.3218 54.0666L17.2924 50.3125L17.6805 50.9357L18.0761 51.5664L15.8371 52.9779L17.3297 55.3205L19.5687 53.909L19.9568 54.5321L20.3524 55.1553L14.3817 58.9094L13.9862 58.2862L13.5981 57.6556L16.2849 55.9512L14.7922 53.6086L12.0905 55.3731L11.7024 54.7499L11.3218 54.0666Z" fill="white"/>
</g>
<defs>
<clipPath id="clip0_838_566">
<rect width="80" height="80" fill="white"/>
</clipPath>
</defs>
</svg>
