<svg width="360" height="70" viewBox="0 0 360 70" fill="none" xmlns="http://www.w3.org/2000/svg">
<g clip-path="url(#clip0_19_972)">
<path d="M324.514 57.4192L324.292 58.0762C324.249 58.2835 324.136 58.4693 323.971 58.6013C323.806 58.7334 323.601 58.8032 323.391 58.7988C323.172 58.8001 322.954 58.7848 322.738 58.7528V59.6529C322.927 59.6529 323.123 59.6923 323.573 59.6923C324.958 59.6923 325.258 58.7857 325.533 57.7608L327.655 49.8772H326.395L325.089 55.7899L323.632 49.8772H322.372L324.514 57.4192ZM321.294 49.8772H320.197V50.8167C320.085 50.4837 319.872 50.195 319.587 49.992C319.301 49.789 318.96 49.6821 318.61 49.6867C316.749 49.6867 316.214 51.5722 316.214 53.5759C316.214 54.5548 316.351 57.2681 318.486 57.2681C318.829 57.2845 319.169 57.1992 319.464 57.0228C319.759 56.8465 319.996 56.5868 320.145 56.2761V57.2418C320.145 57.7477 320.197 58.8908 318.721 58.8908C318.114 58.8908 317.598 58.6346 317.539 57.9579H316.39C316.586 59.804 318.349 59.804 318.8 59.804C320.282 59.804 321.294 59.0025 321.294 56.8016V49.8772ZM318.734 50.6787C319.969 50.6787 320.21 52.1437 320.21 53.5759C320.21 55.0081 319.969 56.2761 318.721 56.2761C317.474 56.2761 317.415 54.7716 317.415 53.5759C317.415 51.8087 317.69 50.6787 318.761 50.6787H318.734ZM312.635 56.552C311.46 56.552 311.225 55.1724 311.225 53.5759C311.225 51.9795 311.499 50.5867 312.661 50.5867C313.824 50.5867 314.111 51.9729 314.111 53.5759C314.111 55.1789 313.882 56.552 312.661 56.552H312.635ZM310.023 53.5759C310.023 55.6519 310.545 57.4586 312.668 57.4586C314.79 57.4586 315.313 55.6519 315.313 53.5759C315.313 51.4999 314.79 49.6867 312.668 49.6867C310.545 49.6867 310.049 51.4933 310.049 53.5759H310.023ZM307.652 57.2681H308.802V47.4136H307.652V57.2681ZM303.734 56.552C302.559 56.552 302.324 55.1724 302.324 53.5759C302.324 51.9795 302.572 50.5999 303.734 50.5999C304.897 50.5999 305.204 51.9729 305.204 53.5759C305.204 55.1789 305.008 56.552 303.786 56.552H303.734ZM301.122 53.5759C301.122 55.6519 301.638 57.4586 303.734 57.4586C305.83 57.4586 306.346 55.6519 306.346 53.5759C306.346 51.4999 305.83 49.6867 303.734 49.6867C301.638 49.6867 301.174 51.4933 301.174 53.5759H301.122ZM295.173 57.2681H296.322V52.17C296.313 51.9734 296.345 51.777 296.415 51.5933C296.485 51.4095 296.592 51.2423 296.729 51.1022C296.867 50.9621 297.031 50.8521 297.213 50.7793C297.395 50.7064 297.59 50.6721 297.785 50.6787C298.83 50.6787 298.869 51.605 298.869 52.17V57.2681H300.018V52.0123C300.018 51.1451 300.018 49.667 298.092 49.667C297.726 49.6589 297.364 49.7543 297.049 49.9424C296.734 50.1306 296.478 50.4039 296.309 50.7313V49.8772H295.173V57.2681ZM292.45 48.7275H293.599V47.4136H292.45V48.7275ZM292.45 57.2681H293.599V49.8772H292.45V57.2681ZM288.323 57.2681H289.472V52.597C289.441 52.1633 289.583 51.7351 289.866 51.4063C290.149 51.0775 290.549 50.8749 290.98 50.8429C291.186 50.8411 291.392 50.8609 291.594 50.9021V49.7721C291.436 49.7033 291.263 49.674 291.091 49.6867C290.269 49.6867 289.831 50.2779 289.505 51.0006V49.8772H288.355L288.323 57.2681ZM287.134 52.1109C287.164 51.7906 287.125 51.4677 287.018 51.1643C286.912 50.8609 286.742 50.5844 286.519 50.3538C286.296 50.1233 286.026 49.9442 285.727 49.829C285.428 49.7138 285.109 49.6653 284.79 49.6867C282.53 49.6867 282.177 51.8153 282.177 53.6613C282.177 56.2038 282.935 57.4586 284.731 57.4586C286.527 57.4586 287.141 55.8753 287.141 54.6993H286.03C286.03 55.5008 285.808 56.552 284.822 56.552C283.438 56.552 283.425 54.5811 283.425 53.6482C283.425 50.9481 284.15 50.5999 284.861 50.5999C285.736 50.5999 286.03 51.4014 286.03 52.1109H287.134ZM278.645 56.552C277.469 56.552 277.234 55.1724 277.234 53.5759C277.234 51.9795 277.541 50.5867 278.677 50.5867C279.813 50.5867 280.153 51.9729 280.153 53.5759C280.153 55.1789 279.898 56.552 278.677 56.552H278.645ZM276.032 53.5759C276.032 55.6519 276.555 57.4586 278.677 57.4586C280.8 57.4586 281.289 55.6519 281.289 53.5759C281.289 51.4999 280.773 49.6867 278.677 49.6867C276.581 49.6867 276.065 51.4933 276.065 53.5759H276.032ZM274.929 47.4267H273.773V50.7115C273.629 50.4033 273.401 50.1426 273.115 49.96C272.83 49.7773 272.498 49.6803 272.16 49.6801C270.09 49.6801 269.842 52.0255 269.842 53.5694C269.842 55.895 270.495 57.452 272.238 57.452C272.585 57.4569 272.924 57.3533 273.21 57.1556C273.495 56.9579 273.713 56.6758 273.832 56.3483V57.2615H274.929V47.4267ZM271.011 53.5759C271.011 51.8087 271.285 50.6787 272.349 50.6787C273.583 50.6787 273.832 52.1437 273.832 53.5759C273.832 55.2512 273.623 56.4666 272.349 56.4666C271.285 56.4994 271.011 55.3366 271.011 53.5759ZM263.736 57.2681H264.885V52.17C264.876 51.974 264.907 51.7782 264.977 51.5949C265.046 51.4115 265.153 51.2447 265.29 51.1047C265.426 50.9647 265.59 50.8546 265.771 50.7813C265.952 50.708 266.146 50.6731 266.341 50.6787C267.38 50.6787 267.419 51.605 267.419 52.17V57.2681H268.568V52.0123C268.568 51.1451 268.568 49.667 266.642 49.667C266.275 49.6589 265.914 49.7543 265.599 49.9424C265.284 50.1306 265.027 50.4039 264.859 50.7313V49.8772H263.762L263.736 57.2681ZM257.434 57.2681H262.658V56.1907H258.649V52.6627H262.279V51.5919H258.649V48.5041H262.521V47.4267H257.467L257.434 57.2681ZM249.499 51.7561L249.859 51.4539C250.512 50.8889 251.204 50.2648 251.204 49.2991C251.204 47.9851 250.368 47.4267 249.134 47.4267C248.874 47.4171 248.614 47.4596 248.371 47.5519C248.128 47.6441 247.905 47.7842 247.716 47.964C247.527 48.1438 247.375 48.3597 247.27 48.5991C247.165 48.8384 247.108 49.0965 247.103 49.3582C247.157 50.012 247.405 50.6344 247.815 51.1451L248.122 51.6444L247.41 52.1832C247.015 52.481 246.692 52.8652 246.466 53.3067C246.239 53.7482 246.116 54.2356 246.104 54.7322C246.096 55.1095 246.167 55.4842 246.313 55.8318C246.459 56.1795 246.676 56.4922 246.95 56.7496C247.225 57.0069 247.55 57.2031 247.905 57.3253C248.26 57.4475 248.636 57.4929 249.01 57.4586C249.468 57.4579 249.92 57.3578 250.336 57.1651C250.752 56.9723 251.121 56.6915 251.419 56.3418L252.072 57.2681H253.378L252.072 55.4877C252.538 54.6011 252.81 53.6244 252.869 52.6233H251.798C251.768 53.2739 251.64 53.9163 251.419 54.5285L249.499 51.7561ZM250.806 55.514C250.611 55.799 250.355 56.0358 250.056 56.2065C249.758 56.3772 249.424 56.4774 249.082 56.4994C248.84 56.511 248.6 56.4713 248.375 56.3829C248.15 56.2945 247.946 56.1594 247.777 55.9865C247.607 55.8135 247.476 55.6066 247.391 55.3791C247.307 55.1517 247.271 54.9089 247.286 54.6665C247.3 54.201 247.437 53.7476 247.682 53.3528C247.928 52.9581 248.273 52.636 248.683 52.4197L250.806 55.514ZM248.97 51.0269L248.735 50.6918C248.415 50.2822 248.213 49.7909 248.154 49.2728C248.148 49.1436 248.17 49.0146 248.217 48.8943C248.264 48.7739 248.336 48.665 248.428 48.5745C248.519 48.4839 248.629 48.4139 248.75 48.369C248.87 48.324 248.999 48.3052 249.127 48.3136C249.256 48.3063 249.385 48.3259 249.505 48.3711C249.626 48.4163 249.736 48.4861 249.829 48.5762C249.921 48.6663 249.995 48.7747 250.043 48.8946C250.092 49.0144 250.116 49.1432 250.113 49.2728C250.081 49.5679 249.987 49.8526 249.836 50.1077C249.685 50.3627 249.481 50.5821 249.238 50.751L248.97 51.0269ZM241.67 47.4267H240.52V50.7115C240.375 50.4028 240.146 50.1419 239.859 49.9593C239.573 49.7766 239.24 49.6798 238.901 49.6801C236.831 49.6801 236.582 52.0255 236.582 53.5694C236.582 55.895 237.235 57.452 238.979 57.452C239.326 57.4569 239.665 57.3533 239.951 57.1556C240.236 56.9579 240.453 56.6758 240.572 56.3483V57.2615H241.67V47.4267ZM237.751 53.5759C237.751 51.8087 238.026 50.6787 239.097 50.6787C240.324 50.6787 240.572 52.1437 240.572 53.5759C240.572 55.2512 240.37 56.4666 239.097 56.4666C238.065 56.4994 237.79 55.3366 237.79 53.5759H237.751ZM234.094 48.7472H235.244V47.4333H234.094V48.7472ZM234.094 57.2878H235.244V49.8772H234.094V57.2878ZM230.176 56.5717C229.001 56.5717 228.766 55.1921 228.766 53.5956C228.766 51.9992 229.014 50.6196 230.176 50.6196C231.338 50.6196 231.645 51.9926 231.645 53.5956C231.645 55.1986 231.463 56.552 230.241 56.552L230.176 56.5717ZM227.564 53.5956C227.564 55.6717 228.08 57.4783 230.176 57.4783C232.272 57.4783 232.821 55.6717 232.821 53.5956C232.821 51.5196 232.305 49.7064 230.176 49.7064C228.047 49.7064 227.629 51.4933 227.629 53.5759L227.564 53.5956ZM223.861 57.2878H225.017V52.597C224.986 52.1644 225.127 51.7371 225.409 51.4085C225.69 51.0798 226.089 50.8765 226.519 50.8429C226.727 50.8417 226.935 50.8615 227.139 50.9021V49.7721C226.979 49.704 226.804 49.6747 226.63 49.6867C225.807 49.6867 225.37 50.2779 225.043 51.0006V49.8772H223.926L223.861 57.2878ZM219.852 57.4389L219.63 58.0959C219.588 58.3039 219.475 58.4904 219.31 58.6226C219.145 58.7548 218.939 58.8242 218.728 58.8185C218.51 58.8198 218.292 58.8045 218.075 58.7725V59.6529C218.265 59.6529 218.461 59.6923 218.911 59.6923C220.296 59.6923 220.596 58.7857 220.87 57.7608L222.993 49.8772H221.732L220.426 55.7899L218.97 49.8772H217.71L219.852 57.4389ZM211.963 57.2878H213.112V52.17C213.103 51.9745 213.134 51.7793 213.204 51.5964C213.273 51.4136 213.379 51.247 213.515 51.1071C213.651 50.9672 213.814 50.857 213.994 50.7833C214.174 50.7096 214.367 50.674 214.562 50.6787C215.6 50.6787 215.646 51.605 215.646 52.17V57.2681H216.795V52.0123C216.795 51.1451 216.795 49.667 214.902 49.667C214.545 49.6761 214.197 49.7754 213.889 49.9556C213.581 50.1359 213.322 50.3913 213.138 50.6984V47.4136H211.989L211.963 57.2878ZM208.632 48.5238H211.094V47.4267H205.054V48.5041H207.503V57.2681H208.711L208.632 48.5238ZM200.385 57.2681H200.985V57.5966C201.02 57.8162 200.98 58.0414 200.871 58.2348C200.761 58.4283 200.59 58.5786 200.385 58.6609V59.3178C201.56 59.0025 201.645 58.063 201.645 57.0184V55.803H200.385V57.2681ZM198.85 52.0123C198.85 51.1451 198.752 49.6538 196.616 49.6538C195.343 49.6538 194.272 50.3108 194.272 51.697C194.272 53.2212 195.193 53.484 196.081 53.7862C196.969 54.0884 197.877 54.2986 197.877 55.2906C197.886 55.4544 197.861 55.6184 197.803 55.7718C197.745 55.9252 197.656 56.0645 197.54 56.1805C197.425 56.2966 197.286 56.3867 197.134 56.4451C196.982 56.5035 196.819 56.5287 196.656 56.5191C195.532 56.5191 195.291 55.7045 195.291 54.811H194.141C194.141 55.5665 194.141 57.4389 196.656 57.4389C196.969 57.4726 197.286 57.4365 197.584 57.3332C197.882 57.23 198.153 57.0621 198.38 56.8414C198.606 56.6207 198.781 56.3527 198.893 56.0563C199.004 55.7599 199.05 55.4425 199.026 55.1264C199.026 53.6613 198.125 53.346 197.23 53.0438C196.336 52.7416 195.428 52.5773 195.428 51.7298C195.414 51.5715 195.435 51.4121 195.491 51.2633C195.546 51.1144 195.634 50.9801 195.749 50.8703C195.863 50.7605 196 50.6779 196.15 50.6288C196.301 50.5797 196.46 50.5653 196.616 50.5867C197.452 50.5867 197.701 51.0926 197.701 52.032L198.85 52.0123ZM193.299 53.7139V53.2146C193.299 51.6313 193.097 49.6604 190.85 49.6604C188.604 49.6604 188.238 51.7955 188.238 53.6416C188.238 56.1775 188.996 57.4323 190.785 57.4323C191.121 57.431 191.453 57.361 191.762 57.2267C192.07 57.0923 192.348 56.8963 192.579 56.6505C192.81 56.4048 192.988 56.1145 193.104 55.7971C193.22 55.4798 193.271 55.1421 193.253 54.8045H192.104C192.104 55.3497 191.954 56.5126 190.857 56.5126C189.446 56.5126 189.446 54.8045 189.446 53.6745L193.299 53.7139ZM189.479 52.8007V52.5576C189.479 52.1175 189.616 50.6327 190.824 50.6327C191.836 50.6327 192.097 51.605 192.097 52.4328V52.8335L189.479 52.8007ZM185.273 49.8772H184.209V50.7904H185.273V55.8885C185.273 56.8542 185.561 57.3469 186.756 57.3469C187.066 57.3495 187.377 57.3231 187.683 57.2681V56.3155C187.516 56.3407 187.348 56.3539 187.18 56.3549C186.579 56.3549 186.423 56.125 186.423 55.5271V50.7904H187.729V49.8772H186.423V47.7289H185.273V49.8772ZM183.673 53.7139V53.2146C183.673 51.6313 183.464 49.6604 181.218 49.6604C178.971 49.6604 178.606 51.7955 178.606 53.6416C178.606 56.1775 179.357 57.4323 181.153 57.4323C181.488 57.4301 181.82 57.3595 182.127 57.2247C182.435 57.09 182.712 56.8938 182.942 56.6482C183.172 56.4025 183.351 56.1125 183.466 55.7956C183.582 55.4787 183.632 55.1415 183.615 54.8045H182.465C182.465 55.3497 182.315 56.5126 181.218 56.5126C179.807 56.5126 179.807 54.8045 179.807 53.6745L183.673 53.7139ZM179.853 52.8007V52.5576C179.853 52.1175 179.99 50.6327 181.192 50.6327C182.204 50.6327 182.465 51.605 182.465 52.4328V52.8335L179.853 52.8007ZM172.506 57.2681H173.603V56.3549C173.723 56.6823 173.94 56.9644 174.225 57.1622C174.511 57.3599 174.85 57.4635 175.197 57.4586C176.895 57.4586 177.594 55.6519 177.594 53.5759C177.594 52.032 177.345 49.6867 175.36 49.6867C175.016 49.6833 174.678 49.7785 174.385 49.9611C174.093 50.1437 173.858 50.4063 173.708 50.7181V47.4333H172.552L172.506 57.2681ZM173.59 53.5759C173.59 52.1437 173.839 50.6787 175.073 50.6787C176.137 50.6787 176.412 51.8087 176.412 53.5759C176.412 55.3432 176.137 56.4666 175.073 56.4666C173.825 56.4994 173.577 55.087 173.577 53.5759H173.59ZM169.79 55.1461C169.765 55.5255 169.598 55.8814 169.323 56.1423C169.048 56.4031 168.685 56.5495 168.307 56.552C167.53 56.552 167.269 56.0264 167.269 55.284C167.238 55.0542 167.274 54.8202 167.374 54.6111C167.474 54.402 167.633 54.2271 167.831 54.1081C168.353 53.7927 169.365 53.6942 169.79 53.2409V55.1461ZM167.393 52.1109V52.0452C167.367 51.8642 167.379 51.6797 167.431 51.5042C167.482 51.3288 167.571 51.1667 167.691 51.0292C167.811 50.8917 167.959 50.7821 168.125 50.708C168.291 50.6338 168.472 50.5969 168.653 50.5999C169.417 50.5999 169.829 50.994 169.829 51.6839C169.829 52.3737 169.829 52.5379 168.993 52.8007L167.445 53.2671C167.013 53.3899 166.637 53.6619 166.384 54.0355C166.131 54.4091 166.016 54.8604 166.061 55.3103C166.061 56.6243 166.714 57.4586 168.066 57.4586C168.426 57.4518 168.778 57.3506 169.087 57.1651C169.396 56.9796 169.652 56.7162 169.829 56.4009C169.888 57.3469 170.436 57.3469 170.874 57.3469C171.093 57.3412 171.311 57.3193 171.527 57.2812V56.4534C171.446 56.508 171.349 56.5334 171.252 56.5257C170.893 56.5257 170.893 56.2301 170.893 55.9279V51.8087C170.893 51.04 170.893 49.6867 168.66 49.6867C166.91 49.6867 166.198 50.429 166.198 52.1109H167.393ZM163.697 48.7472H164.846V47.4333H163.697V48.7472ZM163.697 57.2878H164.846V49.8772H163.697V57.2878ZM156.174 57.2878H158.91C161.601 57.2878 162.214 54.8504 162.214 52.3671C162.214 49.6538 161.829 47.4464 158.793 47.4464H156.18L156.174 57.2878ZM157.382 48.4187H158.642C160.83 48.4187 160.954 50.4619 160.954 52.3605C160.954 54.1278 160.719 56.3023 158.642 56.3023H157.382V48.4187ZM148.664 57.2681H149.813V52.597C149.783 52.1644 149.923 51.7371 150.205 51.4085C150.486 51.0798 150.885 50.8765 151.315 50.8429C151.524 50.8417 151.731 50.8615 151.936 50.9021V49.7721C151.775 49.704 151.6 49.6747 151.426 49.6867C150.603 49.6867 150.166 50.2779 149.839 51.0006V49.8772H148.69L148.664 57.2681ZM144.837 56.552C143.662 56.552 143.427 55.1724 143.427 53.5759C143.427 51.9795 143.668 50.5867 144.837 50.5867C146.006 50.5867 146.28 51.9729 146.28 53.5759C146.28 55.1789 146.058 56.552 144.837 56.552ZM142.225 53.5759C142.225 55.6519 142.741 57.4586 144.87 57.4586C146.999 57.4586 147.482 55.6519 147.482 53.5759C147.482 51.4999 146.966 49.6867 144.87 49.6867C142.774 49.6867 142.225 51.4933 142.225 53.5759ZM139.371 57.2681H140.527V50.7904H141.787V49.8772H140.527V49.01C140.527 48.5041 140.769 48.307 141.265 48.307H141.801V47.3019H140.965C139.854 47.3019 139.371 47.88 139.371 48.9969V49.8641H138.307V50.7772H139.371V57.2681ZM134.486 53.7139V53.2146C134.486 51.6313 134.278 49.6604 132.031 49.6604C129.785 49.6604 129.419 51.7955 129.419 53.6416C129.419 56.1775 130.176 57.4323 131.972 57.4323C132.308 57.4301 132.639 57.3595 132.947 57.2247C133.255 57.09 133.532 56.8938 133.762 56.6482C133.992 56.4025 134.17 56.1125 134.286 55.7956C134.401 55.4787 134.452 55.1415 134.434 54.8045H133.285C133.285 55.3497 133.135 56.5126 132.038 56.5126C130.627 56.5126 130.627 54.8045 130.627 53.6745L134.486 53.7139ZM130.66 52.8007V52.5576C130.66 52.1175 130.797 50.6327 132.005 50.6327C133.017 50.6327 133.311 51.605 133.311 52.4328V52.8335L130.66 52.8007ZM125.605 57.2681H126.761V52.597C126.73 52.1644 126.871 51.7371 127.153 51.4085C127.434 51.0798 127.833 50.8765 128.263 50.8429C128.482 50.8395 128.701 50.8593 128.916 50.9021V49.7721C128.755 49.704 128.581 49.6747 128.407 49.6867C127.584 49.6867 127.146 50.2779 126.82 51.0006V49.8772H125.664L125.605 57.2681ZM122.405 49.8772H121.334V50.7904H122.405V55.8885C122.405 56.8542 122.693 57.3469 123.881 57.3469C124.194 57.3497 124.507 57.3233 124.815 57.2681V56.3155C124.646 56.3403 124.476 56.3534 124.306 56.3549C123.705 56.3549 123.555 56.125 123.555 55.5271V50.7904H124.861V49.8772H123.555V47.7289H122.405V49.8772ZM115.718 57.2681H116.894V52.17C116.885 51.9745 116.916 51.7793 116.985 51.5964C117.054 51.4136 117.16 51.247 117.296 51.1071C117.432 50.9672 117.595 50.857 117.775 50.7833C117.956 50.7096 118.149 50.674 118.343 50.6787C119.388 50.6787 119.427 51.605 119.427 52.17V57.2681H120.577V52.0123C120.577 51.1451 120.577 49.667 118.65 49.667C118.284 49.6589 117.923 49.7543 117.608 49.9424C117.292 50.1306 117.036 50.4039 116.868 50.7313V49.8772H115.718V57.2681ZM114.458 53.7139V53.2146C114.458 51.6313 114.249 49.6604 112.002 49.6604C109.756 49.6604 109.39 51.7955 109.39 53.6416C109.39 56.1775 110.141 57.4323 111.937 57.4323C112.273 57.4301 112.605 57.3595 112.913 57.2248C113.221 57.0901 113.498 56.8941 113.729 56.6485C113.96 56.403 114.138 56.113 114.255 55.7961C114.371 55.4792 114.422 55.1419 114.406 54.8045H113.25C113.25 55.3497 113.1 56.5126 112.002 56.5126C110.592 56.5126 110.592 54.8045 110.592 53.6745L114.458 53.7139ZM110.638 52.8007V52.5576C110.638 52.1175 110.775 50.6327 111.976 50.6327C112.988 50.6327 113.25 51.605 113.25 52.4328V52.8335L110.638 52.8007ZM107.294 53.8716C107.255 55.0672 107.046 56.4469 105.583 56.4469C103.911 56.4469 103.689 54.6008 103.689 52.3277C103.689 50.0546 103.911 48.2085 105.583 48.2085C106.83 48.2085 107.183 49.1545 107.209 50.2714H108.469C108.417 48.3465 107.581 47.2165 105.583 47.2165C102.886 47.2165 102.429 49.8443 102.429 52.3277C102.429 54.811 102.801 57.4389 105.583 57.4389C107.718 57.4389 108.443 55.7308 108.554 53.8716H107.294ZM357.074 10.1963L357.394 10.3999C357.272 11.7139 357.211 14.3221 357.211 18.2244V28.8673C357.211 29.117 357.211 29.9185 357.277 31.2718C357.342 32.6252 357.375 33.4136 357.42 33.6369C357.451 33.8191 357.53 33.9895 357.649 34.1297C357.75 34.2326 357.88 34.3015 358.021 34.3267C358.165 34.3267 358.772 34.399 359.843 34.4713L360 34.6092V35.3188L359.863 35.4764C358.452 35.3845 357.1 35.3385 355.794 35.3385C354.488 35.3385 353.15 35.3845 351.746 35.4764L351.595 35.3188V34.6092L351.746 34.4713C352.836 34.399 353.45 34.353 353.594 34.3202C353.733 34.2835 353.86 34.2084 353.959 34.1034C354.084 33.9674 354.162 33.7946 354.181 33.6106C354.221 33.396 354.266 32.6668 354.319 31.4229C354.371 30.1813 354.397 29.2484 354.397 28.6111V19.8209L354.332 16.2207C354.292 14.9659 354.253 14.0921 354.214 13.5928C354.215 13.2965 354.162 13.0026 354.057 12.7256C353.963 12.6205 353.837 12.549 353.698 12.522C353.021 12.4541 352.34 12.4321 351.661 12.4563L351.51 12.3052V11.6022L351.641 11.4511C353.498 11.2696 355.324 10.8479 357.074 10.1963ZM344.895 26.5088C341.741 27.041 339.782 27.6125 339.018 28.2235C338.616 28.5695 338.3 29.0065 338.098 29.4987C337.896 29.9909 337.813 30.5242 337.855 31.055C337.855 32.807 338.726 33.6829 340.468 33.6829C341.961 33.6829 343.441 32.807 344.908 31.055L344.895 26.5088ZM337.059 23.8284L336.406 23.6576L336.269 23.4868V21.3779C338.276 19.8844 340.235 19.1376 342.146 19.1376C343.264 19.0988 344.373 19.3523 345.365 19.8734C346.131 20.2889 346.763 20.9157 347.187 21.6801C347.585 22.4715 347.782 23.3493 347.762 24.2357L347.677 27.6519V32.7106C347.64 33.1343 347.689 33.5612 347.821 33.9654C347.897 34.0953 348.011 34.1985 348.147 34.261C348.372 34.3323 348.604 34.3742 348.84 34.3859L349.806 34.4713L349.943 34.629V35.2859L349.806 35.4239C348.983 35.3582 348.219 35.3188 347.514 35.3188C346.809 35.3188 346.025 35.3582 345.078 35.4239L344.83 35.1874L344.895 32.4544L341.212 35.3385C340.517 35.6112 339.776 35.7424 339.03 35.7243C338.285 35.7063 337.55 35.5394 336.869 35.2334C336.252 34.9321 335.736 34.4545 335.387 33.8603C335.025 33.2068 334.846 32.4664 334.871 31.7186C334.831 30.996 334.949 30.2734 335.217 29.6015C335.484 28.9296 335.894 28.3248 336.419 27.8293C337.459 26.8921 340.289 26.0949 344.908 25.438C344.908 23.7605 344.536 22.5823 343.792 21.9035C342.965 21.1878 341.897 20.8186 340.807 20.872C340.201 20.8654 339.598 20.9632 339.024 21.1611C338.687 21.2455 338.372 21.4049 338.104 21.6275C338.025 21.7524 337.725 22.4422 337.196 23.7101L337.059 23.8284ZM322.992 22.0086V21.5684L323.11 21.3976C323.987 21.082 324.844 20.7134 325.676 20.2939C325.676 17.3419 325.641 15.6228 325.572 15.1367C326.567 14.8019 327.523 14.3614 328.426 13.8228L328.83 14.1578C328.717 14.8761 328.582 16.9477 328.426 20.3727C328.987 20.3727 329.594 20.3727 330.248 20.3727C331.2 20.3896 332.153 20.3545 333.101 20.2676L333.219 20.3924L332.899 21.8115L332.762 21.9692C332.187 21.9692 331.554 21.9692 330.855 21.9692H328.426L328.321 28.9068C328.299 29.9526 328.336 30.9989 328.432 32.0405C328.48 32.4899 328.697 32.9036 329.039 33.1968C329.469 33.5024 329.991 33.6487 330.515 33.6106C331.255 33.6146 331.981 33.4098 332.612 33.0194L333.016 33.6304C332.742 33.8209 332.096 34.3859 331.057 35.3253C330.501 35.5935 329.892 35.7327 329.275 35.7327C326.741 35.7327 325.474 34.4997 325.474 32.0339C325.474 31.1273 325.474 30.3587 325.546 29.7214C325.546 29.5309 325.546 29.3338 325.546 29.1301V22.0809H324.853C324.351 22.0809 323.769 22.0808 323.116 22.1465L322.992 22.0086ZM317.017 11.5694C317.268 11.5676 317.517 11.616 317.749 11.7118C317.981 11.8076 318.192 11.9488 318.369 12.1273C318.547 12.3058 318.687 12.518 318.782 12.7515C318.877 12.9851 318.926 13.2353 318.924 13.4877C318.923 13.7385 318.873 13.9866 318.777 14.2178C318.68 14.4491 318.539 14.6589 318.362 14.8353C318.185 15.0117 317.975 15.1512 317.744 15.2457C317.513 15.3403 317.266 15.3881 317.017 15.3863C316.769 15.3894 316.523 15.3428 316.293 15.2492C316.063 15.1555 315.854 15.0168 315.678 14.8411C315.495 14.6678 315.35 14.4579 315.252 14.2249C315.154 13.9918 315.106 13.7407 315.11 13.4877C315.106 13.2339 315.155 12.982 315.253 12.7479C315.351 12.5139 315.495 12.3027 315.678 12.1278C315.853 11.9491 316.061 11.8075 316.291 11.7116C316.521 11.6156 316.768 11.5673 317.017 11.5694ZM318.454 19.1573L318.774 19.3807C318.65 20.8655 318.584 22.7444 318.584 25.0306V28.8673C318.584 29.117 318.584 29.9185 318.656 31.2718C318.661 32.0622 318.709 32.8518 318.8 33.6369C318.824 33.8208 318.904 33.9928 319.028 34.1297C319.126 34.2336 319.254 34.3028 319.394 34.3267C319.544 34.3267 320.152 34.399 321.216 34.4713L321.373 34.6027V35.3188L321.236 35.4699C319.825 35.3845 318.473 35.3385 317.167 35.3385C315.861 35.3385 314.522 35.3845 313.118 35.4699L312.968 35.3188V34.6027L313.118 34.4713C314.209 34.399 314.823 34.353 314.966 34.3202C315.109 34.286 315.238 34.2106 315.339 34.1034C315.458 33.964 315.535 33.7929 315.561 33.6106C315.6 33.3939 315.639 32.6646 315.691 31.4229C315.744 30.1813 315.77 29.2484 315.77 28.6111V25.2737C315.77 24.8138 315.77 24.2029 315.698 23.4211C315.626 22.6393 315.619 22.1597 315.593 21.9757C315.583 21.8933 315.554 21.8144 315.509 21.7449C315.464 21.6755 315.403 21.6174 315.332 21.575C315.05 21.4719 314.75 21.4294 314.451 21.4502H313.033L312.883 21.3188V20.5698L313.02 20.4319C314.878 20.2408 316.704 19.8125 318.454 19.1573ZM297.785 31.9748C298.347 32.5402 298.998 33.0085 299.712 33.361C300.496 33.7546 301.362 33.955 302.239 33.9457C303.264 33.9658 304.272 33.6751 305.132 33.1114C306.012 32.5137 306.694 31.6649 307.091 30.674C307.565 29.5506 307.8 28.3401 307.783 27.1198C307.79 26.1073 307.578 25.1053 307.163 24.1832C306.763 23.2875 306.097 22.539 305.256 22.0414C304.432 21.5336 303.485 21.2652 302.52 21.2662C301.927 21.2662 301.339 21.3707 300.782 21.575C300.207 21.7908 299.673 22.1041 299.202 22.5013C298.78 22.8191 298.415 23.2081 298.125 23.651C297.936 23.9239 297.819 24.2403 297.785 24.5708C297.785 24.8117 297.785 25.081 297.785 25.3788V31.9748ZM297.648 18.9537L297.974 19.1573C297.857 20.4713 297.798 21.5881 297.785 22.5867C299.313 21.1808 300.397 20.2545 300.985 19.8012C301.573 19.3479 302.624 19.1442 304.1 19.1442C304.953 19.1327 305.802 19.2614 306.614 19.5252C307.388 19.7959 308.1 20.2229 308.704 20.7801C309.35 21.3887 309.858 22.1304 310.193 22.9546C310.578 23.9211 310.766 24.9554 310.748 25.9964C310.744 26.8394 310.612 27.6769 310.356 28.4797C310.11 29.2933 309.768 30.0741 309.337 30.8054C309.066 31.3093 308.73 31.7754 308.338 32.1916C307.851 32.5868 307.328 32.9364 306.777 33.2362C306.066 33.6698 305.367 34.1297 304.668 34.629C304.343 34.8663 304.005 35.0856 303.656 35.2859C303.349 35.425 303.027 35.5265 302.696 35.5881C302.225 35.6956 301.743 35.7486 301.259 35.7458C300.051 35.7454 298.86 35.4549 297.785 34.8983V38.5116C297.785 38.7613 297.785 39.5628 297.85 40.9096C297.916 42.2564 297.948 43.0513 297.994 43.2812C298.026 43.4629 298.105 43.6329 298.223 43.774C298.324 43.8759 298.454 43.9446 298.595 43.971C298.738 43.971 299.346 44.0433 300.417 44.1156L300.574 44.247V44.9631L300.436 45.1142C299.035 45.0222 297.685 44.9762 296.388 44.9762C295.081 44.9762 293.743 45.0222 292.339 45.1142L292.182 44.9631V44.247L292.339 44.1156C293.416 44.0433 294.03 43.9973 294.174 43.9579C294.318 43.9267 294.449 43.8536 294.553 43.7477C294.681 43.6036 294.759 43.4214 294.775 43.2287C294.814 42.9922 294.859 42.2366 294.912 40.9556C294.964 39.6745 294.984 38.7153 294.984 38.0715V25.0635C294.984 24.4788 294.984 23.7955 294.912 23.0203C294.892 22.5803 294.848 22.1417 294.781 21.7064C294.743 21.5762 294.656 21.4657 294.539 21.3976C294.26 21.2937 293.961 21.2533 293.664 21.2793H292.247L292.097 21.148V20.3662L292.234 20.2282C294.079 20.038 295.892 19.6096 297.628 18.9537H297.648ZM278.442 30.3455H279.173L279.324 30.4966C279.335 31.3138 279.391 32.1298 279.493 32.9405C279.943 33.5569 280.574 34.0163 281.296 34.2545C282.102 34.579 282.961 34.7484 283.83 34.7538C284.869 34.7999 285.888 34.4504 286.683 33.7749C287.018 33.4923 287.288 33.1395 287.473 32.7412C287.658 32.3428 287.754 31.9086 287.754 31.4689C287.765 31.0146 287.627 30.5693 287.363 30.201C287.058 29.8076 286.655 29.5036 286.194 29.3206C285.292 28.9708 284.364 28.694 283.418 28.4929C282.265 28.2257 281.455 28.0067 280.989 27.8359C280.511 27.659 280.068 27.3963 279.683 27.0607C279.261 26.7052 278.928 26.2552 278.71 25.7467C278.327 24.8194 278.256 23.7914 278.509 22.8199C278.761 21.8483 279.322 20.9865 280.107 20.3662C281.409 19.4239 282.985 18.9432 284.587 18.9997C285.419 19.0098 286.247 19.1156 287.056 19.315C287.744 19.4643 288.421 19.6641 289.08 19.9129L289.23 20.1559C289.095 21.3378 289.038 22.5273 289.06 23.7167L288.91 23.8744H288.257L288.107 23.7167C288.091 23.2277 288.028 22.7413 287.918 22.2648C287.796 21.9168 287.587 21.6066 287.31 21.3648C286.912 20.9999 286.443 20.7225 285.932 20.5501C285.325 20.3307 284.684 20.2195 284.039 20.2216C283.448 20.2068 282.86 20.3095 282.308 20.5238C281.854 20.7222 281.463 21.0427 281.178 21.4502C280.883 21.8943 280.732 22.4202 280.747 22.9546C280.742 23.3562 280.834 23.753 281.015 24.1109C281.182 24.4665 281.45 24.7639 281.786 24.9649C282.137 25.1726 282.518 25.3233 282.915 25.4117L284.757 25.8913C285.906 26.1447 287.037 26.4784 288.14 26.8899C288.788 27.1547 289.339 27.6133 289.72 28.2038C290.093 28.8088 290.286 29.5088 290.275 30.2207C290.275 30.9935 290.102 31.7563 289.769 32.4525C289.435 33.1486 288.95 33.7601 288.349 34.2413C286.97 35.3986 285.213 36.0002 283.418 35.9297C282.543 35.9132 281.67 35.8342 280.806 35.6932C279.755 35.5356 278.847 35.3582 278.116 35.1677L278.031 34.9443L278.2 33.8077C278.253 33.4573 278.286 33.1042 278.298 32.75C278.298 32.3887 278.298 31.6397 278.298 30.4966L278.442 30.3455ZM262.214 26.4037C262.19 27.8441 262.395 29.2791 262.821 30.6543C263.169 31.8199 263.834 32.8645 264.741 33.6698C265.568 34.4115 266.638 34.8207 267.745 34.8195C268.374 34.8246 268.996 34.6839 269.562 34.4082C270.129 34.1324 270.624 33.7292 271.011 33.2296C271.879 32.1785 272.317 30.6017 272.317 28.4534C272.399 26.3892 271.911 24.3425 270.906 22.5407C270.504 21.8202 269.914 21.2243 269.199 20.8177C268.484 20.4112 267.672 20.2095 266.851 20.2348C266.194 20.2049 265.54 20.3343 264.943 20.6122C264.346 20.89 263.825 21.3081 263.422 21.8312C262.619 22.8495 262.214 24.3868 262.214 26.3906V26.4037ZM259.021 27.5928C259.012 26.2341 259.295 24.8896 259.85 23.651C260.475 22.3138 261.474 21.1884 262.723 20.4122C264.176 19.4788 265.873 19.0051 267.595 19.0522C268.657 19.0047 269.716 19.1799 270.707 19.5669C271.697 19.9538 272.596 20.544 273.348 21.2998C274.099 22.0556 274.686 22.9604 275.07 23.9568C275.455 24.9532 275.629 26.0192 275.582 27.087C275.611 28.2529 275.406 29.4128 274.981 30.4976C274.555 31.5825 273.917 32.5701 273.104 33.4018C272.291 34.2335 271.321 34.8923 270.25 35.339C269.179 35.7857 268.03 36.0112 266.87 36.002C265.362 36.017 263.887 35.5576 262.652 34.6881C261.477 33.9093 260.531 32.8299 259.909 31.5609C259.319 30.3224 259.016 28.9659 259.021 27.5928ZM230.117 11.3526C232.984 11.438 234.597 11.4839 234.943 11.4839C235.289 11.4839 236.902 11.438 239.789 11.3526L239.919 11.4708V12.3183L239.789 12.4366C239.01 12.4366 238.409 12.4694 237.986 12.5351C237.667 12.5515 237.354 12.639 237.072 12.7913C236.952 12.9025 236.855 13.0374 236.789 13.1878C236.723 13.3381 236.688 13.5006 236.687 13.6651C236.618 14.2999 236.587 14.9383 236.595 15.5769L236.563 19.4793V21.8575C239.025 21.9232 241.363 21.9626 243.563 21.9626C246.58 21.9626 248.873 21.9232 250.453 21.8575V19.4793L250.414 16.1944C250.429 15.361 250.396 14.5275 250.316 13.6979C250.294 13.4337 250.214 13.1776 250.081 12.949C249.912 12.7887 249.701 12.6814 249.473 12.6402C248.726 12.5215 247.971 12.46 247.214 12.4563L247.09 12.338V11.4708L247.214 11.3526C250.087 11.4401 251.7 11.4839 252.053 11.4839C252.405 11.4839 254.018 11.4401 256.892 11.3526L257.029 11.4708V12.3183L256.892 12.4366C256.108 12.4366 255.507 12.4891 255.083 12.5351C254.761 12.5516 254.447 12.6391 254.162 12.7913C254.044 12.9036 253.95 13.0391 253.886 13.1894C253.822 13.3397 253.789 13.5016 253.79 13.6651C253.725 14.3002 253.692 14.9383 253.692 15.5769L253.653 19.4793V27.3629L253.692 30.6477C253.681 31.4767 253.713 32.3056 253.79 33.1311C253.808 33.3959 253.893 33.6517 254.038 33.8734C254.207 34.034 254.417 34.1433 254.645 34.1888C255.387 34.3193 256.139 34.3852 256.892 34.3859L257.029 34.4844V35.3385L256.892 35.4699C254.018 35.3779 252.405 35.3385 252.053 35.3385C251.7 35.3385 250.094 35.3779 247.214 35.4699L247.09 35.3385V34.4844L247.214 34.3859C247.917 34.3697 248.62 34.3127 249.317 34.2151C249.567 34.1923 249.806 34.1014 250.009 33.9523C250.161 33.763 250.26 33.5361 250.296 33.2953C250.4 32.5182 250.44 31.7337 250.414 30.9499L250.453 27.3629V23.4671C247.116 23.4014 244.785 23.3685 243.446 23.3685C242.107 23.3685 239.782 23.3685 236.563 23.4671V27.3366V30.6214C236.548 31.4504 236.581 32.2796 236.661 33.1048C236.68 33.3683 236.763 33.6232 236.902 33.8472C237.077 34.0067 237.291 34.1157 237.523 34.1625C238.265 34.2922 239.016 34.3581 239.769 34.3596L239.9 34.4581V35.3122L239.769 35.4436C236.896 35.3516 235.283 35.3122 234.924 35.3122C234.564 35.3122 232.965 35.3516 230.098 35.4436L229.961 35.3122V34.4581L230.098 34.3596C230.799 34.3429 231.499 34.2859 232.194 34.1888C232.445 34.1614 232.685 34.0711 232.893 33.926C233.045 33.7373 233.142 33.5099 233.174 33.269C233.278 32.4918 233.321 31.7077 233.304 30.9236V27.3366V19.453L233.271 16.1681C233.284 15.3349 233.254 14.5017 233.18 13.6717C233.165 13.4062 233.084 13.1486 232.945 12.9227C232.773 12.7638 232.561 12.6567 232.331 12.6139C231.588 12.4957 230.837 12.4342 230.085 12.43L229.948 12.3117V11.4708L230.117 11.3526ZM208.032 25.8978C208.232 25.9285 209.009 25.9679 210.363 26.0161C211.721 26.0621 212.727 26.0884 213.38 26.0884C214.33 26.1097 215.28 26.0812 216.227 26.003C216.227 25.727 216.227 25.5234 216.227 25.346C216.227 23.5941 215.872 22.2801 215.163 21.4042C214.81 20.9804 214.365 20.6442 213.862 20.422C213.359 20.1998 212.812 20.0975 212.263 20.1231C211.664 20.0946 211.067 20.2109 210.521 20.4624C209.976 20.7138 209.498 21.0931 209.129 21.5684C208.397 22.5626 208.032 24.0058 208.032 25.8978ZM218.846 32.8486L218.304 34.0705C217.346 34.7277 216.29 35.2267 215.176 35.5487C214.373 35.757 213.549 35.8695 212.72 35.8838C211.399 35.8912 210.091 35.6204 208.881 35.0888C207.637 34.5259 206.604 33.5804 205.929 32.3887C205.137 30.9901 204.744 29.3988 204.793 27.7899C204.778 26.703 204.925 25.6201 205.23 24.5773C205.427 23.8226 205.738 23.1026 206.151 22.4422C206.608 21.8439 207.157 21.3228 207.777 20.8983C208.524 20.3416 209.341 19.8866 210.206 19.545C211.088 19.1982 212.028 19.0243 212.975 19.0325C214.23 19.008 215.466 19.3405 216.541 19.9917C217.505 20.5549 218.264 21.4136 218.709 22.4422C219.137 23.4469 219.36 24.5285 219.362 25.6219C219.362 25.9701 219.362 26.3117 219.31 26.6402L219.127 26.8242C218.108 27.0232 217.075 27.1375 216.038 27.1658C214.732 27.2183 213.889 27.2512 213.471 27.2512H208.058C208.058 29.59 208.665 31.3178 209.808 32.4281C210.367 32.9722 211.027 33.3992 211.752 33.6845C212.476 33.9699 213.249 34.1078 214.026 34.0902C214.802 34.0913 215.572 33.9534 216.299 33.6829C217.1 33.3756 217.872 32.9951 218.604 32.5464L218.846 32.8486ZM189.583 19.1573L189.91 19.3807C189.838 20.1362 189.792 21.1348 189.773 22.3699C190.667 21.621 191.529 20.8655 192.333 20.0902C192.529 19.9046 192.748 19.7456 192.986 19.6172C193.317 19.4729 193.663 19.365 194.017 19.2953C194.506 19.1823 195.005 19.125 195.506 19.1245C196.363 19.1258 197.21 19.3047 197.994 19.6501C198.687 19.9233 199.31 20.3499 199.816 20.8983C200.232 21.3916 200.525 21.977 200.672 22.6064C200.843 23.4026 200.922 24.2161 200.907 25.0306V28.0198C200.907 28.2104 200.907 29.6229 200.992 32.2442C200.992 33.3216 201.136 33.9654 201.344 34.1625C201.553 34.3596 202.252 34.4713 203.441 34.4713L203.571 34.6027V35.3385L203.441 35.4699C202.011 35.3845 201.038 35.3385 200.535 35.3385C200.241 35.3385 199.418 35.3845 198.073 35.4699L197.87 35.2859C198.014 33.8143 198.086 31.896 198.086 29.5309V27.3103C198.086 25.9964 198.086 25.0109 197.994 24.4197C197.941 23.8471 197.748 23.2966 197.433 22.8167C197.123 22.3347 196.693 21.9428 196.185 21.6801C195.593 21.4039 194.945 21.269 194.292 21.2859C193.787 21.2761 193.284 21.3358 192.796 21.4633C192.291 21.6254 191.816 21.8719 191.392 22.1925C190.959 22.4782 190.572 22.8281 190.243 23.2305C190.023 23.489 189.871 23.7983 189.799 24.1306C189.73 24.717 189.704 25.3076 189.72 25.8978V28.8542C189.72 29.1038 189.72 29.9053 189.786 31.2587C189.851 32.6121 189.884 33.4004 189.929 33.6238C189.959 33.8059 190.038 33.9763 190.158 34.1165C190.259 34.2195 190.389 34.2883 190.53 34.3136C190.674 34.3136 191.288 34.3859 192.352 34.4581L192.509 34.5895V35.3056L192.372 35.4567C190.97 35.3691 189.614 35.3253 188.303 35.3253C186.993 35.3253 185.643 35.3691 184.254 35.4567L184.104 35.3056V34.6027L184.254 34.4713C185.345 34.399 185.959 34.353 186.103 34.3202C186.245 34.286 186.374 34.2106 186.475 34.1034C186.595 33.9649 186.67 33.7931 186.69 33.6106C186.729 33.396 186.775 32.6668 186.827 31.4229C186.88 30.1813 186.906 29.2484 186.906 28.6111V25.2737C186.906 24.8138 186.906 24.2029 186.834 23.4211C186.762 22.6393 186.756 22.1597 186.729 21.9757C186.719 21.8933 186.69 21.8144 186.645 21.7449C186.6 21.6755 186.539 21.6174 186.468 21.575C186.186 21.4719 185.886 21.4294 185.587 21.4502H184.17L184.019 21.3188V20.5698L184.15 20.4319C186.008 20.2423 187.834 19.814 189.583 19.1573ZM178.619 11.5694C178.87 11.5676 179.118 11.616 179.351 11.7118C179.583 11.8076 179.794 11.9488 179.971 12.1273C180.148 12.3058 180.289 12.518 180.384 12.7515C180.479 12.9851 180.527 13.2353 180.526 13.4877C180.525 13.7385 180.475 13.9866 180.378 14.2178C180.282 14.4491 180.141 14.6589 179.964 14.8353C179.787 15.0117 179.577 15.1512 179.346 15.2457C179.115 15.3403 178.868 15.3881 178.619 15.3863C178.129 15.3838 177.66 15.188 177.313 14.8411C177.129 14.6678 176.984 14.4579 176.886 14.2249C176.788 13.9918 176.74 13.7407 176.745 13.4877C176.741 13.2339 176.789 12.982 176.887 12.7479C176.985 12.5139 177.13 12.3027 177.313 12.1278C177.657 11.7748 178.127 11.5739 178.619 11.5694ZM180.049 19.1573L180.375 19.3807C180.251 20.8655 180.186 22.7444 180.186 25.0306V28.8673C180.186 29.117 180.186 29.9185 180.251 31.2718C180.317 32.6252 180.349 33.4136 180.395 33.6369C180.424 33.8206 180.506 33.9918 180.63 34.1297C180.727 34.2336 180.856 34.3028 180.996 34.3267C181.139 34.3267 181.753 34.399 182.818 34.4713L182.968 34.6027V35.3188L182.85 35.4764C181.44 35.391 180.088 35.345 178.782 35.345C177.476 35.345 176.137 35.391 174.733 35.4764L174.583 35.3253V34.6027L174.733 34.4713C175.824 34.399 176.438 34.353 176.581 34.3202C176.723 34.2846 176.852 34.2094 176.954 34.1034C177.073 33.9649 177.148 33.7931 177.169 33.6106C177.208 33.396 177.254 32.6668 177.306 31.4229C177.358 30.1813 177.385 29.2484 177.385 28.6111V25.2737C177.385 24.8138 177.385 24.2029 177.313 23.4211C177.241 22.6393 177.234 22.1597 177.208 21.9757C177.198 21.8933 177.169 21.8144 177.124 21.7449C177.078 21.6755 177.018 21.6174 176.947 21.575C176.665 21.4719 176.365 21.4294 176.065 21.4502H174.648L174.498 21.3188V20.5698L174.635 20.4319C176.486 20.2397 178.305 19.8115 180.049 19.1573ZM170.012 10.1963L170.332 10.3999C170.205 11.7139 170.145 14.3221 170.149 18.2244V28.8673C170.149 29.117 170.149 29.9185 170.214 31.2718C170.219 32.0622 170.267 32.8518 170.358 33.6369C170.385 33.8199 170.465 33.991 170.586 34.1297C170.685 34.2349 170.816 34.3041 170.959 34.3267C171.102 34.3267 171.71 34.399 172.781 34.4713L172.931 34.6092V35.3188L172.8 35.4764C171.39 35.3845 170.038 35.3385 168.732 35.3385C167.426 35.3385 166.12 35.3845 164.683 35.4764L164.526 35.3188V34.6092L164.683 34.4713C165.774 34.399 166.387 34.353 166.525 34.3202C166.667 34.2849 166.796 34.2097 166.897 34.1034C167.021 33.9674 167.099 33.7946 167.119 33.6106C167.158 33.396 167.204 32.6668 167.256 31.4229C167.302 30.1813 167.328 29.2484 167.328 28.6111V19.8209L167.262 16.2207C167.223 14.9659 167.191 14.0921 167.151 13.5928C167.152 13.2965 167.099 13.0026 166.995 12.7256C166.9 12.6205 166.774 12.549 166.636 12.522C165.947 12.4615 165.256 12.4484 164.565 12.4825L164.415 12.3314V11.6022L164.552 11.4511C166.418 11.2711 168.253 10.8494 170.012 10.1963ZM156.533 19.1573L156.853 19.3807C156.788 20.0377 156.729 21.2005 156.696 22.8758L157.963 21.2662C158.297 20.825 158.666 20.4119 159.067 20.0311C159.398 19.7441 159.778 19.5214 160.19 19.3741C160.608 19.2194 161.05 19.1393 161.496 19.1376C161.979 19.1353 162.456 19.2408 162.894 19.4464L163.011 19.6829C162.835 21.1874 162.73 22.5079 162.711 23.6576H161.953C161.802 23.1976 161.509 22.7981 161.117 22.5169C160.725 22.2358 160.254 22.0876 159.772 22.094C159.105 22.0818 158.457 22.3154 157.95 22.751C157.44 23.1908 157.078 23.7781 156.912 24.4328C156.722 25.2686 156.634 26.1246 156.651 26.9818V28.8673C156.651 29.209 156.651 30.0367 156.716 31.3638C156.781 32.6909 156.814 33.453 156.86 33.6566C156.883 33.8224 156.96 33.976 157.077 34.0944C157.195 34.2129 157.348 34.2898 157.513 34.3136C157.682 34.3136 158.486 34.4056 159.909 34.4844L160.066 34.6158V35.3319L159.909 35.483C158.416 35.3954 156.853 35.3516 155.22 35.3516C153.914 35.3516 152.565 35.3954 151.172 35.483L151.021 35.3319V34.6027L151.172 34.4713C152.262 34.399 152.876 34.353 153.02 34.3202C153.162 34.286 153.292 34.2106 153.392 34.1034C153.512 33.9649 153.587 33.7931 153.607 33.6106C153.69 32.8842 153.735 32.154 153.745 31.4229C153.797 30.1813 153.823 29.2484 153.823 28.6111V25.2737C153.823 24.8138 153.823 24.2029 153.751 23.4211C153.679 22.6393 153.673 22.1597 153.647 21.9757C153.636 21.8933 153.607 21.8144 153.562 21.7449C153.517 21.6755 153.456 21.6174 153.385 21.575C153.103 21.4719 152.803 21.4294 152.504 21.4502H151.087L150.937 21.3188V20.5698L151.067 20.4319C152.936 20.2437 154.773 19.8153 156.533 19.1573ZM137.595 25.8978C137.791 25.8978 138.575 25.9701 139.926 26.0161C141.278 26.0621 142.29 26.0884 142.943 26.0884C143.893 26.1095 144.844 26.081 145.791 26.003C145.791 25.727 145.791 25.5234 145.791 25.346C145.791 23.5919 145.431 22.2845 144.726 21.4042C144.373 20.9815 143.927 20.6462 143.425 20.4241C142.922 20.202 142.375 20.099 141.827 20.1231C141.228 20.094 140.632 20.2101 140.087 20.4617C139.543 20.7132 139.067 21.0928 138.699 21.5684C137.967 22.5626 137.601 24.0058 137.601 25.8978H137.595ZM148.416 32.8486L147.874 34.0705C146.916 34.7277 145.86 35.2267 144.746 35.5487C143.943 35.7566 143.119 35.869 142.29 35.8838C140.967 35.89 139.656 35.617 138.444 35.0823C137.201 34.5193 136.167 33.5738 135.492 32.3821C134.7 30.9835 134.307 29.3922 134.356 27.7833C134.341 26.6965 134.488 25.6135 134.793 24.5708C134.994 23.8171 135.304 23.0976 135.714 22.4356C136.171 21.8374 136.72 21.3162 137.34 20.8917C138.082 20.3412 138.892 19.8906 139.75 19.5515C140.632 19.2048 141.572 19.0309 142.519 19.0391C143.773 19.0156 145.009 19.348 146.084 19.9983C147.049 20.5614 147.808 21.4201 148.253 22.4488C148.676 23.4524 148.894 24.5316 148.892 25.6219C148.892 25.9701 148.892 26.3117 148.84 26.6402L148.657 26.8242C147.639 27.023 146.606 27.1372 145.569 27.1658C144.262 27.2183 143.42 27.2512 143.002 27.2512H137.588C137.588 29.59 138.196 31.3178 139.339 32.4281C139.897 32.9722 140.558 33.3992 141.282 33.6845C142.006 33.9699 142.78 34.1078 143.557 34.0902C144.333 34.0913 145.102 33.9534 145.83 33.6829C146.631 33.3756 147.403 32.9951 148.135 32.5464L148.416 32.8486ZM123.169 35.6473L122.118 32.9734L120.871 30.0762L117.41 21.9757C117.273 21.5936 117.072 21.2379 116.815 20.9246C116.67 20.7725 116.484 20.6654 116.28 20.6158C115.922 20.5684 115.563 20.542 115.202 20.537L115.065 20.399V19.6698L115.215 19.5121C116.796 19.5909 118.043 19.6304 118.964 19.6304C120.27 19.6304 121.576 19.5909 122.882 19.5121L123.019 19.6501V20.399L122.882 20.537C122.192 20.4972 121.5 20.5795 120.838 20.7801C120.752 20.832 120.682 20.9052 120.633 20.9927C120.583 21.0801 120.557 21.1789 120.557 21.2793C120.668 22.0366 120.888 22.7736 121.21 23.4671L123.267 28.6308L124.887 32.4807L126.578 28.6308L127.995 25.1358C128.537 23.8218 128.883 22.8692 129.04 22.3174C129.158 21.959 129.236 21.589 129.275 21.2137C129.275 21.1059 129.239 21.0012 129.173 20.9166C129.106 20.832 129.014 20.7723 128.91 20.7472C128.296 20.6004 127.666 20.5298 127.035 20.537L126.898 20.399V19.6698L127.048 19.5121C128.446 19.5909 129.491 19.6304 130.19 19.6304C130.777 19.6304 131.776 19.5909 133.193 19.5121L133.344 19.6698V20.399L133.207 20.537C132.757 20.5441 132.313 20.6401 131.9 20.8195C131.617 21.0214 131.391 21.2958 131.247 21.6144C131.032 22.002 130.438 23.2174 129.445 25.254L127.826 28.7294C127.56 29.3206 126.587 31.6244 124.906 35.6407L123.169 35.6473ZM110.82 10.1963L111.14 10.3999C111.019 11.7139 110.958 14.3221 110.958 18.2244V28.8673C110.958 29.117 110.958 29.9185 111.023 31.2718C111.028 32.0622 111.076 32.8518 111.167 33.6369C111.194 33.8199 111.273 33.991 111.395 34.1297C111.494 34.2349 111.625 34.3041 111.767 34.3267C111.911 34.3267 112.518 34.399 113.589 34.4713L113.739 34.6092V35.3188L113.628 35.4764C112.218 35.3845 110.866 35.3385 109.56 35.3385C108.254 35.3385 106.915 35.3845 105.511 35.4764L105.354 35.3188V34.6092L105.511 34.4713C106.602 34.399 107.216 34.353 107.353 34.3202C107.495 34.2849 107.624 34.2097 107.725 34.1034C107.85 33.9674 107.928 33.7946 107.947 33.6106C107.986 33.3939 108.032 32.6646 108.078 31.4229C108.123 30.1813 108.156 29.2484 108.156 28.6111V19.8209L108.091 16.2207C108.052 14.9659 108.019 14.0921 107.98 13.5928C107.983 13.2957 107.928 13.0008 107.816 12.7256C107.723 12.6217 107.6 12.5504 107.464 12.522C106.785 12.454 106.102 12.432 105.42 12.4563L105.27 12.3052V11.6022L105.407 11.4511C107.257 11.2673 109.077 10.8455 110.82 10.1963ZM99.3139 11.5694C99.5648 11.5676 99.8135 11.616 100.046 11.7118C100.278 11.8076 100.489 11.9488 100.666 12.1273C100.844 12.3058 100.984 12.518 101.079 12.7515C101.174 12.9851 101.222 13.2353 101.221 13.4877C101.219 13.8675 101.106 14.2383 100.895 14.5534C100.684 14.8685 100.385 15.1139 100.036 15.2585C99.6872 15.4032 99.3034 15.4408 98.9331 15.3665C98.5629 15.2922 98.2228 15.1094 97.9556 14.8411C97.7723 14.6678 97.627 14.4579 97.5292 14.2249C97.4313 13.9918 97.383 13.7407 97.3874 13.4877C97.3837 13.2339 97.4323 12.982 97.5301 12.7479C97.6278 12.5139 97.7727 12.3027 97.9556 12.1278C98.1321 11.9463 98.3437 11.8032 98.5773 11.7071C98.8109 11.6111 99.0616 11.5642 99.3139 11.5694ZM100.751 19.1573L101.071 19.3807C100.946 20.8655 100.881 22.7444 100.881 25.0306V28.8673C100.881 29.117 100.881 29.9185 100.946 31.2718C101.012 32.6252 101.044 33.4136 101.09 33.6369C101.119 33.8206 101.201 33.9918 101.325 34.1297C101.423 34.2336 101.551 34.3028 101.691 34.3267C101.841 34.3267 102.442 34.399 103.513 34.4713L103.67 34.6027V35.3188L103.533 35.4699C102.131 35.3823 100.775 35.3385 99.4641 35.3385C98.1537 35.3385 96.804 35.3823 95.4153 35.4699L95.2651 35.3188V34.6027L95.4153 34.4713C96.5058 34.399 97.1197 34.353 97.2634 34.3202C97.4065 34.2879 97.5364 34.2122 97.6356 34.1034C97.7553 33.9649 97.8305 33.7931 97.8511 33.6106C97.8968 33.3939 97.936 32.6646 97.9882 31.4229C98.0405 30.1813 98.0666 29.2484 98.0666 28.6111V25.2737C98.0666 24.8138 98.0666 24.2029 97.9948 23.4211C97.9229 22.6393 97.9164 22.1597 97.8837 21.9757C97.876 21.8926 97.8481 21.8126 97.8026 21.7427C97.757 21.6729 97.6952 21.6153 97.6225 21.575C97.343 21.4711 97.0446 21.4285 96.7474 21.4502H95.3304L95.1802 21.3188V20.5698L95.3173 20.4319C97.1747 20.24 99.0004 19.8117 100.751 19.1573ZM77.6461 29.498L77.7832 29.3601H78.6126L78.7432 29.498C78.7459 30.3789 78.8224 31.258 78.9718 32.1259C79.1564 32.5576 79.4779 32.9156 79.886 33.1442C80.5086 33.5541 81.1984 33.8499 81.9235 34.018C82.7625 34.2452 83.6276 34.3601 84.4965 34.3596C85.6043 34.3785 86.703 34.1543 87.7159 33.7026C88.6348 33.2857 89.4067 32.5986 89.9297 31.7317C90.4508 30.883 90.7246 29.9043 90.7199 28.9068C90.7395 28.2297 90.6101 27.5567 90.3412 26.9358C90.1085 26.4125 89.7438 25.9595 89.2832 25.6219C88.8098 25.2851 88.2817 25.0339 87.7225 24.8795C87.1347 24.7153 86.2597 24.5379 85.1103 24.3408C83.961 24.1437 83.1055 23.9992 82.4982 23.8547C81.8431 23.7051 81.2059 23.4849 80.5978 23.1977C80.0002 22.904 79.4638 22.4982 79.0175 22.002C78.5752 21.4952 78.2318 20.909 78.0053 20.2742C77.7519 19.5686 77.6237 18.8236 77.6265 18.0733C77.5969 17.0981 77.7778 16.1279 78.1565 15.2297C78.5353 14.3315 79.1031 13.5265 79.8207 12.8702C81.2835 11.5168 83.2426 10.8401 85.6981 10.8401C86.7744 10.8522 87.8467 10.9755 88.8979 11.208C89.9891 11.4285 91.0472 11.7907 92.0456 12.2854L92.1631 12.4891C91.8694 13.9535 91.7163 15.4429 91.706 16.9368L91.5558 17.0682H90.6742L90.5436 16.9499C90.5436 15.59 90.4848 14.7359 90.4391 14.3877C90.3934 14.0396 89.884 13.5994 88.9045 13.0738C87.9223 12.5534 86.8277 12.2849 85.7176 12.292C84.7916 12.2836 83.8751 12.481 83.0337 12.8702C82.2136 13.2403 81.545 13.8828 81.1399 14.69C80.7219 15.4651 80.4978 16.3309 80.4868 17.2127C80.4751 17.8291 80.6094 18.4393 80.8786 18.9931C81.1077 19.4762 81.4507 19.8957 81.8778 20.2151C82.3152 20.5162 82.8013 20.7385 83.3145 20.872C84.3041 21.1018 85.3045 21.2816 86.3119 21.4107C87.7968 21.5698 89.2558 21.9164 90.6546 22.4422C91.556 22.8387 92.3149 23.5037 92.8292 24.3474C93.3991 25.2995 93.6847 26.3965 93.6521 27.5074C93.6637 28.6713 93.4054 29.8219 92.8975 30.8677C92.3896 31.9135 91.6462 32.8257 90.7264 33.5318C88.7198 35.1577 86.2036 36.0123 83.6279 35.9429C81.5185 35.9912 79.4251 35.5624 77.5024 34.6881L77.3979 34.4647C77.5068 33.7683 77.5895 32.1128 77.6461 29.498Z" fill="#057EB6"/>
<path fill-rule="evenodd" clip-rule="evenodd" d="M34.7873 6.16694e-07C41.6694 -0.00129873 48.3974 2.05067 54.1202 5.89638C59.843 9.74209 64.3036 15.2088 66.9379 21.6051C69.5722 28.0014 70.2618 35.0399 68.9194 41.8305C67.5771 48.6211 64.2632 54.8587 59.3968 59.7543C54.5304 64.65 48.3301 67.9839 41.5802 69.3343C34.8302 70.6847 27.8338 69.991 21.4758 67.3408C15.1178 64.6907 9.6838 60.2032 5.8611 54.446C2.0384 48.6887 -0.00129096 41.9203 6.13004e-07 34.9967C6.13004e-07 25.715 3.66508 16.8135 10.189 10.2503C16.7129 3.68714 25.5611 6.16694e-07 34.7873 6.16694e-07Z" fill="white"/>
<path d="M34.7872 2.00391C41.2754 2.00261 47.6183 3.93706 53.0136 7.56259C58.4088 11.1881 62.6142 16.3419 65.0977 22.372C67.5812 28.4022 68.2314 35.0378 66.9659 41.4397C65.7004 47.8416 62.5762 53.7222 57.9883 58.3376C53.4005 62.9531 47.5551 66.0961 41.1915 67.3692C34.828 68.6423 28.232 67.9883 22.2379 65.4898C16.2439 62.9913 11.121 58.7607 7.51713 53.3329C3.91328 47.9051 1.99041 41.5241 1.9917 34.9969C1.9917 26.2466 5.44694 17.8547 11.5973 11.6673C17.7477 5.47994 26.0893 2.00391 34.7872 2.00391ZM34.7872 19.7421C37.7923 19.7434 40.7295 20.6414 43.2271 22.3224C45.7247 24.0035 47.6706 26.3921 48.8185 29.186C49.9664 31.9799 50.2647 35.0535 49.6758 38.018C49.0868 40.9826 47.637 43.7047 45.5098 45.8401C43.3827 47.9755 40.6737 49.4282 37.7256 50.0143C34.7776 50.6004 31.723 50.2937 28.9483 49.1328C26.1735 47.972 23.8034 46.0093 22.1378 43.493C20.4722 40.9768 19.5859 38.02 19.5911 34.9969C19.5902 32.989 19.9827 31.0007 20.7461 29.1455C21.5094 27.2903 22.6287 25.6047 24.04 24.1849C25.4513 22.7652 27.1268 21.6391 28.9709 20.8712C30.815 20.1032 32.7914 19.7083 34.7872 19.7092V19.7421Z" fill="#057EB6"/>
<path fill-rule="evenodd" clip-rule="evenodd" d="M34.7872 3.54102C43.0805 3.54102 51.0341 6.85487 56.8989 12.7538C62.7638 18.6527 66.0594 26.6535 66.0612 34.9967V35.1149H51.2111V34.9967C51.1254 30.6707 49.357 26.5511 46.2856 23.5223C43.2143 20.4934 39.0848 18.7969 34.7839 18.7969C30.4831 18.7969 26.3536 20.4934 23.2823 23.5223C20.2109 26.5511 18.4425 30.6707 18.3568 34.9967V35.1149H3.51978V34.9967C3.51978 26.6541 6.81401 18.6532 12.6778 12.7542C18.5416 6.85508 26.4946 3.54102 34.7872 3.54102Z" fill="white"/>
<g style="mix-blend-mode:multiply" opacity="0.3">
<path d="M54.1237 26.8767L60.0402 25.1883L61.2745 29.5637L60.752 29.7148L60.2296 29.8593L59.3415 26.7256L58.1203 27.0869L58.9431 29.9973L58.4338 30.1418L57.9244 30.2864L57.1016 27.376L55.5082 27.8227L56.4289 31.1076L55.913 31.2587L55.3841 31.4098L54.1237 26.8767ZM50.9369 21.7983L50.5973 21.3056L50.2447 20.8129L55.26 17.2258L55.6518 17.7777L56.0371 18.3295L53.9474 22.8692L57.4673 20.3661L57.8134 20.8589L58.166 21.3516L53.1507 24.9386L52.7785 24.4131L52.4062 23.8875L54.5547 19.223L50.9369 21.7983ZM47.4301 18.4741L51.2308 13.6059L51.7336 14.0067L52.243 14.4074L48.4423 19.2756L47.9395 18.8748L47.4301 18.4741ZM42.0817 15.4717L44.6024 9.85465L45.1902 10.124L45.7779 10.3868L43.6882 15.0316L46.4766 16.2995L46.2546 16.7922L46.0261 17.2981L42.0817 15.4717ZM36.7595 10.8007L38.2353 10.9912C38.4973 11.0437 38.7693 11.0042 39.0059 10.8795C39.0993 10.8139 39.1767 10.7277 39.2322 10.6276C39.2876 10.5274 39.3197 10.4159 39.3259 10.3014C39.3512 10.1871 39.3503 10.0685 39.3231 9.95465C39.296 9.84079 39.2433 9.73468 39.1692 9.64442C38.9929 9.47156 38.7616 9.36687 38.5161 9.34878L36.9488 9.19768L36.7595 10.8007ZM35.0485 14.0855L35.8191 7.94287L36.4721 8.02828L38.9145 8.33705C39.4289 8.37851 39.9091 8.61301 40.2597 8.99402C40.415 9.17143 40.5289 9.38142 40.5933 9.60871C40.6577 9.83601 40.6709 10.0749 40.632 10.308C40.6153 10.5627 40.5332 10.8086 40.3935 11.0217C40.2538 11.2348 40.0614 11.4077 39.8353 11.5234C39.7156 11.586 39.5883 11.6324 39.4565 11.6613L39.6524 11.7861C39.8135 11.9199 39.9361 12.0947 40.0073 12.2923C40.0785 12.4898 40.0957 12.703 40.0573 12.9096L39.9593 13.9213C39.9339 14.0647 39.9339 14.2115 39.9593 14.3549C39.9899 14.45 40.0553 14.5298 40.1422 14.5783V14.7425L38.7382 14.5651C38.7047 14.4276 38.6915 14.286 38.699 14.1447C38.699 13.9279 38.699 13.7045 38.7447 13.4877L38.81 12.9161C38.8318 12.807 38.8278 12.6942 38.7983 12.587C38.7688 12.4797 38.7147 12.3809 38.6402 12.2986C38.4244 12.1178 38.1565 12.0119 37.8761 11.9964L36.5701 11.8321L36.3089 14.2563L35.6558 14.1709L35.0485 14.0855ZM28.4267 15.1958L27.0423 9.19768L31.4503 8.17281L31.5678 8.70495L31.6919 9.2371L28.5377 9.94006L28.8316 11.2146L31.7637 10.5576L31.8813 11.0766L31.9988 11.6022L29.0667 12.2592L29.4324 13.8359L32.6976 13.0672L32.8216 13.5994L32.9392 14.1381L28.4267 15.1958ZM19.0164 13.0869L19.6107 12.7387L20.2049 12.3971L23.7183 15.8199L22.5428 11.0372L23.111 10.7087L23.6922 10.3737L24.9525 16.7857L24.4236 17.0813L23.8946 17.3835L19.0164 13.0869ZM18.5266 22.1531L14.0729 17.8828L14.517 17.4164L14.9611 16.9499L18.6246 20.4647L20.7339 18.2376L21.1257 18.612L21.5241 18.9931L18.5266 22.1531ZM16.7308 25.0503L11.3955 21.9691L11.7155 21.4107L12.0355 20.8457L17.3708 23.9335L17.0508 24.4919L16.7308 25.0503ZM11.1408 27.0607C11.0058 27.0307 10.8659 27.0317 10.7314 27.0635C10.5969 27.0953 10.4712 27.1572 10.3637 27.2446C10.1161 27.4559 9.94216 27.7414 9.86737 28.0592C9.77829 28.3166 9.77829 28.5968 9.86737 28.8542C9.91045 28.9617 9.97863 29.0573 10.0662 29.1328C10.1537 29.2082 10.258 29.2614 10.3702 29.2878C10.4588 29.3132 10.5529 29.3112 10.6403 29.2819C10.7277 29.2526 10.8043 29.1974 10.86 29.1235C11.1146 28.7908 11.3335 28.4318 11.513 28.0527C11.781 27.4589 12.1756 26.9318 12.6689 26.5088C12.8671 26.3996 13.0865 26.3349 13.3119 26.319C13.5374 26.3032 13.7636 26.3365 13.975 26.4168C14.2347 26.4824 14.4743 26.6114 14.6725 26.7925C14.8707 26.9736 15.0214 27.2011 15.1113 27.4548C15.3179 28.0796 15.3179 28.755 15.1113 29.3798C14.9679 30.0209 14.6078 30.5921 14.0925 30.9959C13.8514 31.1605 13.5767 31.2689 13.2887 31.3133C13.0006 31.3576 12.7063 31.3367 12.4273 31.2521L12.7669 30.0499C12.9042 30.092 13.0495 30.1015 13.1912 30.0776C13.3328 30.0536 13.467 29.9969 13.5831 29.9119C13.841 29.7029 14.0187 29.4103 14.086 29.0841C14.1933 28.7695 14.2181 28.4323 14.1578 28.1052C14.1342 27.9935 14.082 27.8899 14.0064 27.8046C13.9308 27.7194 13.8345 27.6554 13.7268 27.6191C13.6321 27.5865 13.5307 27.579 13.4323 27.5974C13.3339 27.6158 13.2419 27.6595 13.1652 27.7242C12.9154 27.9914 12.7103 28.2976 12.5579 28.6308C12.2629 29.2678 11.8508 29.8429 11.3432 30.3258C11.1594 30.4508 10.9484 30.5298 10.728 30.5561C10.5076 30.5824 10.2842 30.5552 10.0763 30.4769C9.81221 30.4122 9.5667 30.2865 9.35927 30.1097C9.15184 29.933 8.98818 29.71 8.88128 29.4586C8.66946 28.8639 8.66946 28.2137 8.88128 27.6191C9.02192 27.0263 9.36955 26.504 9.86084 26.1475C10.0943 25.9877 10.3585 25.8789 10.6363 25.828C10.914 25.7771 11.1993 25.7852 11.4738 25.8518L11.1408 27.0607Z" fill="#231F20"/>
</g>
<path d="M54.0126 26.7913L59.9357 25.0964L61.1699 29.4783L60.6475 29.6294L60.1251 29.774L59.2369 26.6402L57.9831 27.0016L58.8059 29.9119L58.2966 30.0565L57.7807 30.201L56.9644 27.2906L55.4101 27.7308L56.3374 31.0156L55.815 31.1668L55.2926 31.3179L54.0126 26.7913ZM50.8193 21.713L50.4732 21.2203L50.1271 20.7275L55.1424 17.1405L55.5277 17.6923L55.9195 18.2442L53.8298 22.7838L57.3496 20.2676L57.6958 20.7604L58.0419 21.2531L53.0331 24.8401L52.6608 24.3146L52.2886 23.789L54.4371 19.1245L50.8193 21.713ZM47.3125 18.3953L51.1131 13.5271L51.616 13.9279L52.1188 14.3286L48.3247 19.1902L47.8218 18.7895L47.3125 18.3953ZM41.9641 15.3929L44.4979 9.74958L45.0856 10.0124L45.6668 10.2817L43.5836 14.9265L46.3656 16.1879L46.1435 16.6806L45.915 17.1865L41.9641 15.3929ZM36.6418 10.7219L38.1177 10.9124C38.3776 10.9649 38.6475 10.9255 38.8817 10.8007C38.9771 10.7365 39.0563 10.6509 39.1129 10.5505C39.1696 10.4501 39.2023 10.3379 39.2083 10.2226C39.2343 10.1079 39.233 9.98863 39.2047 9.87449C39.1763 9.76035 39.1216 9.65454 39.045 9.56563C38.8697 9.39132 38.6379 9.28637 38.392 9.26999L36.8639 9.0729L36.6418 10.7219ZM34.9309 14.0067L35.7015 7.88379L36.3545 7.9692L38.7969 8.27797C39.3117 8.31816 39.7923 8.55287 40.1421 8.93494C40.2997 9.11101 40.4156 9.32068 40.4812 9.54823C40.5468 9.77577 40.5604 10.0153 40.5209 10.2489C40.5093 10.5008 40.4335 10.7455 40.3008 10.9594C40.1682 11.1734 39.9831 11.3495 39.7633 11.4708C39.6433 11.5325 39.5161 11.5788 39.3846 11.6088C39.4506 11.6458 39.5139 11.6875 39.574 11.7336C39.7368 11.8662 39.861 12.0406 39.9334 12.2383C40.0058 12.4361 40.0238 12.6499 39.9854 12.857L39.8874 13.8688C39.8662 14.0125 39.8662 14.1586 39.8874 14.3024C39.9207 14.396 39.9853 14.475 40.0703 14.5257V14.69L38.6336 14.4535C38.6001 14.316 38.5869 14.1743 38.5944 14.033C38.5984 13.8134 38.6137 13.5941 38.6401 13.376L38.7054 12.8045C38.7273 12.6954 38.7233 12.5826 38.6938 12.4753C38.6643 12.368 38.6101 12.2693 38.5356 12.1869C38.3183 12.0169 38.0532 11.9204 37.7781 11.911L36.5112 11.7468L36.2043 14.171L35.5513 14.0856L34.9309 14.0067ZM28.3156 15.1104L26.9312 9.07947L31.3457 8.0546L31.4698 8.58675L31.5938 9.11889L28.4331 9.85469L28.7335 11.1292L31.6657 10.4722L31.7832 10.9913L31.9073 11.5168L28.9752 12.1738L29.3409 13.7505L32.6518 12.9819L32.7693 13.514L32.8934 14.0527L28.3156 15.1104ZM18.938 13.0016L19.5322 12.6534L20.12 12.3118L23.6137 15.7674L22.4448 10.9847L23.0129 10.6562L23.5876 10.3211L24.8153 16.7069L24.2864 17.0157L23.7574 17.3179L18.938 13.0016ZM18.4482 22.0677L13.9945 17.7974L14.4385 17.331L14.8826 16.8645L18.52 20.3662L20.6293 18.1391L21.0212 18.5135L21.4195 18.888L18.4482 22.0677ZM16.6197 24.965L11.2909 21.8838L11.6044 21.3254L11.9309 20.7604L17.2597 23.8481L16.9462 24.4065L16.6197 24.965ZM11.0297 26.9753C10.8958 26.9454 10.7569 26.9464 10.6234 26.9783C10.4899 27.0101 10.3654 27.072 10.2591 27.1592C10.0236 27.3752 9.86138 27.6602 9.79545 27.9739C9.70318 28.2307 9.70318 28.512 9.79545 28.7688C9.83854 28.8764 9.90672 28.9719 9.99424 29.0474C10.0818 29.1229 10.186 29.176 10.2983 29.2024C10.3869 29.2279 10.481 29.2258 10.5684 29.1965C10.6558 29.1672 10.7324 29.112 10.7881 29.0382C11.0427 28.7054 11.2616 28.3464 11.4411 27.9673C11.7091 27.3736 12.1037 26.8465 12.597 26.4234C12.7952 26.3143 13.0146 26.2496 13.24 26.2337C13.4655 26.2178 13.6916 26.2512 13.9031 26.3315C14.1628 26.397 14.4024 26.526 14.6006 26.7071C14.7988 26.8882 14.9495 27.1157 15.0393 27.3695C15.246 27.9943 15.246 28.6696 15.0393 29.2944C14.894 29.9347 14.5343 30.5052 14.0206 30.9105C13.7787 31.0761 13.5029 31.1851 13.2136 31.2295C12.9243 31.2738 12.6288 31.2524 12.3488 31.1668L12.6884 29.9645C12.8269 30.0062 12.9731 30.0155 13.1157 29.9916C13.2584 29.9677 13.3937 29.9112 13.5112 29.8265C13.767 29.6157 13.9443 29.3239 14.0141 28.9988C14.1214 28.6841 14.1462 28.3469 14.0859 28.0199C14.0657 27.9057 14.014 27.7995 13.9366 27.7135C13.8592 27.6276 13.7593 27.5652 13.6484 27.5337C13.5548 27.501 13.4543 27.4935 13.3569 27.512C13.2596 27.5304 13.1687 27.5741 13.0933 27.6388C12.843 27.9071 12.6359 28.2129 12.4794 28.5455C12.1847 29.1768 11.7723 29.7455 11.2648 30.2207C11.0809 30.3458 10.87 30.4247 10.6496 30.451C10.4292 30.4773 10.2057 30.4501 9.99789 30.3718C9.73475 30.3067 9.49033 30.1807 9.28402 30.004C9.07771 29.8272 8.91519 29.6045 8.80937 29.3535C8.59479 28.7593 8.59479 28.1082 8.80937 27.514C8.95506 26.9253 9.30471 26.4081 9.79545 26.0555C10.0301 25.8984 10.2945 25.7916 10.572 25.7419C10.8495 25.6922 11.1343 25.7005 11.4085 25.7665L11.0297 26.9753Z" fill="#057EB6"/>
<g style="mix-blend-mode:multiply" opacity="0.4">
<path d="M57.8135 51.1255L52.439 48.11L52.7525 47.5451L53.0659 46.9801L57.4674 49.4634L58.9563 46.7698L59.4265 47.0392L59.9032 47.302L57.8135 51.1255ZM50.284 52.1767L51.2244 54.614L52.4847 53.576L50.284 52.1767ZM51.0807 57.7478L48.8538 51.5788L49.4285 51.0993L50.0032 50.6262L55.5932 54.0162L55.0708 54.4498L54.5418 54.8834L53.4251 54.1804L51.6227 55.6718L52.106 56.9003L51.5966 57.3207L51.0807 57.7478ZM45.7127 60.7107L43.7014 56.0331L41.9969 56.7755L41.7815 56.2762L41.5659 55.7703L46.1372 53.7994L46.3527 54.2987L46.5682 54.8046L44.8638 55.5469L46.8751 60.218L46.2874 60.4742L45.7127 60.7107ZM39.437 62.5371L38.2681 56.4535L38.9211 56.3353L39.5742 56.217L40.717 62.3006L40.064 62.4188L39.437 62.5371ZM32.6455 59.4953L33.7164 59.5807C34.003 59.6239 34.2954 59.5609 34.5393 59.4033C34.6406 59.3166 34.7223 59.2089 34.7786 59.0876C34.835 58.9663 34.8647 58.8343 34.8658 58.7004C34.8801 58.5811 34.8675 58.4602 34.8291 58.3465C34.7907 58.2328 34.7273 58.1292 34.6437 58.0434C34.4238 57.8593 34.1462 57.7593 33.8601 57.7609L32.7891 57.6755L32.6455 59.4953ZM31.1108 62.6619L31.5549 56.4995L32.2079 56.5455L34.167 56.6966C34.7447 56.7043 35.2997 56.9239 35.7278 57.3142C35.9029 57.5151 36.0321 57.7521 36.1066 58.0086C36.181 58.265 36.1989 58.5348 36.1588 58.7989C36.1561 59.0771 36.0967 59.3518 35.9844 59.606C35.8721 59.8603 35.7092 60.0887 35.5058 60.2771C35.03 60.6152 34.4423 60.7542 33.8666 60.6647L32.5606 60.5727L32.3908 62.767L31.7377 62.7145L31.1108 62.6619ZM27.7281 57.439C27.771 57.3074 27.7845 57.1679 27.7675 57.0305C27.7506 56.8931 27.7037 56.7611 27.6301 56.6441C27.4455 56.3749 27.18 56.1723 26.8726 56.0659C26.6268 55.9471 26.3478 55.9169 26.0824 55.9805C25.9722 56.0132 25.8714 56.0721 25.7884 56.1521C25.7055 56.2321 25.6428 56.331 25.6057 56.4404C25.5733 56.5265 25.5665 56.6201 25.5863 56.71C25.606 56.7998 25.6513 56.882 25.7167 56.9463C26.0193 57.2414 26.352 57.5034 26.7093 57.7281C27.2683 58.056 27.7479 58.5048 28.1134 59.042C28.2002 59.2514 28.241 59.4772 28.2331 59.704C28.2253 59.9308 28.1688 60.1531 28.0677 60.3559C27.9753 60.6087 27.8229 60.8348 27.6237 61.0146C27.4245 61.1944 27.1846 61.3224 26.9248 61.3874C26.2847 61.5229 25.6182 61.4469 25.0245 61.1706C24.4014 60.9773 23.8653 60.5705 23.5095 60.0209C23.3737 59.7615 23.2958 59.4755 23.2812 59.1828C23.2665 58.8901 23.3154 58.5977 23.4246 58.3259L24.5804 58.7858C24.525 58.9196 24.5009 59.0644 24.51 59.2091C24.519 59.3537 24.561 59.4944 24.6327 59.6201C24.8129 59.8991 25.0825 60.1078 25.3967 60.2114C25.6993 60.3499 26.0319 60.4087 26.3632 60.3822C26.4773 60.3753 26.5871 60.3357 26.6796 60.2682C26.7722 60.2008 26.8436 60.1081 26.8857 60.0012C26.9284 59.9105 26.9473 59.8103 26.9404 59.7102C26.9336 59.6101 26.9012 59.5135 26.8465 59.4296C26.6046 59.1543 26.3228 58.9173 26.0106 58.7267C25.4078 58.3679 24.88 57.8949 24.4564 57.3339C24.35 57.1314 24.2944 56.9059 24.2944 56.6769C24.2944 56.4479 24.35 56.2224 24.4564 56.0199C24.5482 55.7617 24.6988 55.5286 24.8961 55.3392C25.0934 55.1499 25.3319 55.0096 25.5926 54.9294C26.1983 54.7694 26.8405 54.8275 27.4081 55.0936C27.9752 55.3107 28.4457 55.7258 28.7338 56.263C28.8662 56.5133 28.9456 56.7884 28.967 57.0711C28.9884 57.3538 28.9512 57.6379 28.8578 57.9054L27.7281 57.439ZM17.9325 55.8623C18.112 56.011 18.3239 56.1147 18.551 56.165C18.778 56.2152 19.0137 56.2105 19.2386 56.1513C19.7722 55.9809 20.2326 55.6335 20.5447 55.1659C20.9126 54.7281 21.1282 54.1813 21.1585 53.6089C21.1508 53.3721 21.0906 53.1401 20.9823 52.9297C20.874 52.7193 20.7204 52.536 20.5326 52.3931C20.3448 52.2501 20.1277 52.1512 19.897 52.1035C19.6663 52.0559 19.428 52.0607 19.1994 52.1176C18.6641 52.3024 18.2048 52.6605 17.8933 53.1359C17.531 53.5625 17.3217 54.0993 17.2991 54.66C17.2991 54.8895 17.3522 55.1158 17.4542 55.3211C17.5562 55.5263 17.7043 55.7049 17.8868 55.8426L17.9325 55.8623ZM17.2795 56.7295C16.953 56.5047 16.6776 56.2129 16.4716 55.8731C16.2656 55.5333 16.1336 55.1535 16.0844 54.7586C16.0293 53.8967 16.3078 53.0468 16.8615 52.3869C17.3478 51.6586 18.0935 51.1459 18.9447 50.9547C19.3409 50.8819 19.7481 50.8977 20.1375 51.001C20.5268 51.1043 20.8888 51.2926 21.1977 51.5526C21.5183 51.7826 21.7858 52.0795 21.9819 52.423C22.1781 52.7666 22.2981 53.1487 22.334 53.5432C22.3837 54.4154 22.1038 55.2744 21.5503 55.9477C21.0731 56.664 20.3379 57.1658 19.4998 57.347C19.0992 57.4175 18.688 57.3987 18.2954 57.292C17.9027 57.1853 17.5381 56.9933 17.2272 56.7295H17.2795ZM10.0569 47.5319L15.2812 44.2471L15.6273 44.7924L15.9669 45.3442L14.0078 46.5793L15.3138 48.629L17.273 47.394L17.6125 47.9392L17.9586 48.4845L12.7343 51.7694L12.3229 51.2438L11.9768 50.6985L14.3669 49.2006L13.0609 47.1574L10.7034 48.6488L10.3638 48.1035L10.0569 47.5319Z" fill="#231F20"/>
</g>
<path fill-rule="evenodd" clip-rule="evenodd" d="M34.7872 19.8994C37.7578 19.8994 40.6618 20.7856 43.1318 22.446C45.6018 24.1063 47.5269 26.4662 48.6637 29.2272C49.8006 31.9883 50.098 35.0265 49.5185 37.9576C48.9389 40.8887 47.5084 43.5811 45.4078 45.6943C43.3073 47.8075 40.631 49.2466 37.7174 49.8296C34.8039 50.4127 31.7839 50.1134 29.0393 48.9698C26.2948 47.8261 23.949 45.8894 22.2986 43.4045C20.6482 40.9196 19.7673 37.9982 19.7673 35.0097C19.7673 31.0022 21.3498 27.1588 24.1665 24.3251C26.9833 21.4914 30.8037 19.8994 34.7872 19.8994Z" fill="white"/>
<path fill-rule="evenodd" clip-rule="evenodd" d="M40.9715 38.5376C40.632 35.6272 37.6672 33.814 34.8003 33.814C32.8412 33.814 31.3458 32.5 31.2739 30.1021V29.5634C31.2535 29.086 31.3293 28.6093 31.4968 28.1622C31.6643 27.715 31.92 27.3066 32.2486 26.9615C32.5772 26.6164 32.9717 26.3418 33.4086 26.1542C33.8455 25.9665 34.3155 25.8698 34.7905 25.8698C35.2655 25.8698 35.7356 25.9665 36.1725 26.1542C36.6093 26.3418 37.0039 26.6164 37.3325 26.9615C37.6611 27.3066 37.9168 27.715 38.0843 28.1622C38.2518 28.6093 38.3276 29.086 38.3072 29.5634V31.462H43.7078V38.5376H40.9715ZM28.5638 31.462C28.6618 34.6023 31.7702 36.5798 34.7612 36.5798C36.7203 36.5798 38.2941 37.9857 38.2941 40.4691C38.251 41.3809 37.8596 42.2408 37.2014 42.8693C36.5433 43.4978 35.6693 43.8463 34.7618 43.8421C33.8544 43.8378 32.9837 43.4812 32.3313 42.8466C31.679 42.212 31.2955 41.3484 31.2609 40.4362V38.5376H25.8668V31.462H28.5638ZM28.381 23.3682H41.1805V28.5648H46.3656V41.4282H41.1805V46.6446H28.394V41.4282H23.2285V28.5648H28.394L28.381 23.3682Z" fill="#057EB6"/>
<path d="M57.6958 50.9282L52.3213 47.9127L52.6347 47.3543L52.9482 46.7827L57.3758 49.2726L58.8582 46.579L59.3349 46.8484L59.8116 47.1178L57.6958 50.9282ZM50.1793 51.9793L51.1132 54.4232L52.3801 53.3787L50.1793 51.9793ZM50.976 57.5504L48.7492 51.3815L49.3238 50.9019L49.8985 50.4289L55.5081 53.8188L54.9791 54.2524L54.4567 54.686L53.34 53.9831L51.5311 55.4744L52.0209 56.7029L51.505 57.1234L50.976 57.5504ZM45.5689 60.5133L43.5575 55.8423L41.8466 56.5847L41.6311 56.0854L41.4156 55.5861L45.9868 53.6152L46.2023 54.1145L46.4178 54.6203L44.733 55.3233L46.7443 60.0009L46.1631 60.2571L45.5689 60.5133ZM39.2932 62.3397L38.1504 56.2562L38.8034 56.1379L39.4564 56.0197L40.5927 62.1032L39.9397 62.2215L39.2932 62.3397ZM32.5016 59.298L33.566 59.3834C33.8547 59.4258 34.1489 59.3629 34.3954 59.206C34.4964 59.1208 34.5775 59.0142 34.6328 58.8938C34.6882 58.7734 34.7163 58.6422 34.7154 58.5096C34.731 58.3908 34.7197 58.27 34.6824 58.1563C34.6451 58.0425 34.5827 57.9387 34.4999 57.8526C34.2745 57.6736 33.9968 57.5744 33.7097 57.5701L32.6518 57.4584L32.5016 59.298ZM30.967 62.4645L31.4437 56.2956L32.0967 56.3416L34.0232 56.4927C34.6048 56.5077 35.1596 56.7422 35.5774 57.1497C35.7523 57.3495 35.8821 57.5852 35.9576 57.8404C36.0331 58.0956 36.0527 58.3643 36.0149 58.6278C36.0162 58.9067 35.9587 59.1826 35.8461 59.4374C35.7335 59.6923 35.5685 59.9201 35.3619 60.106C34.8882 60.4435 34.3036 60.5846 33.7293 60.5002C33.233 60.4542 32.802 60.4279 32.4232 60.4082L32.2534 62.5959L31.6004 62.5499L30.967 62.4645ZM27.5777 57.2088C27.624 57.0778 27.6392 56.9377 27.6222 56.7997C27.6052 56.6617 27.5564 56.5296 27.4797 56.4139C27.2964 56.1476 27.0333 55.9473 26.7287 55.8423C26.4827 55.724 26.2039 55.6938 25.9386 55.7569C25.8278 55.7886 25.7265 55.8471 25.6434 55.9272C25.5603 56.0074 25.498 56.1068 25.4618 56.2168C25.4277 56.3026 25.42 56.3967 25.4398 56.4869C25.4596 56.5772 25.506 56.6593 25.5729 56.7226C25.8708 57.0202 26.2017 57.2825 26.5589 57.5044C27.118 57.8347 27.5992 58.283 27.9695 58.8184C28.0563 59.0278 28.0972 59.2536 28.0893 59.4804C28.0814 59.7071 28.0249 59.9295 27.9238 60.1323C27.8391 60.3968 27.6893 60.6354 27.4884 60.8261C27.2874 61.0168 27.0418 61.1532 26.7745 61.2229C26.1322 61.358 25.4637 61.282 24.8676 61.0061C24.2494 60.7986 23.7228 60.3803 23.3787 59.8235C23.2429 59.5642 23.165 59.2782 23.1504 58.9855C23.1357 58.6927 23.1846 58.4003 23.2938 58.1286L24.4496 58.595C24.3943 58.7277 24.3702 58.8714 24.3793 59.015C24.3883 59.1587 24.4303 59.2982 24.5019 59.4228C24.6788 59.7048 24.9496 59.9144 25.2659 60.014C25.5659 60.1537 25.8962 60.2147 26.2259 60.1914C26.3471 60.1857 26.4639 60.1439 26.5616 60.0714C26.6592 59.9989 26.7333 59.8989 26.7745 59.7841C26.8192 59.694 26.8391 59.5935 26.8322 59.493C26.8253 59.3925 26.7919 59.2957 26.7353 59.2125C26.495 58.9356 26.2129 58.6984 25.8994 58.5096C25.2947 58.1649 24.7624 57.7053 24.3321 57.1562C24.2257 56.9538 24.1701 56.7283 24.1701 56.4993C24.1701 56.2703 24.2257 56.0448 24.3321 55.8423C24.4252 55.5869 24.5764 55.357 24.7738 55.1711C24.9711 54.9851 25.209 54.8482 25.4684 54.7714C26.0755 54.6095 26.7197 54.6652 27.2904 54.9291C27.8631 55.1333 28.3448 55.5363 28.6487 56.0657C28.7797 56.3165 28.8578 56.5919 28.878 56.8745C28.8982 57.1572 28.8602 57.4409 28.7662 57.7081L27.5777 57.2088ZM17.7821 55.6321C17.9621 55.7798 18.1741 55.883 18.4009 55.9332C18.6278 55.9834 18.8632 55.9793 19.0882 55.9211C19.6228 55.7526 20.0838 55.4048 20.3943 54.9357C20.7764 54.5032 21.006 53.9559 21.0473 53.3787C21.044 53.1381 20.9828 52.9019 20.8691 52.6903C20.7554 52.4787 20.5925 52.2978 20.3943 52.1633C20.2142 52.0159 20.0017 51.9139 19.7745 51.8659C19.5473 51.8179 19.312 51.8253 19.0882 51.8874C18.5529 52.0722 18.0936 52.4303 17.7821 52.9057C17.4183 53.332 17.2068 53.8685 17.1813 54.4298C17.1757 54.6677 17.226 54.9036 17.3281 55.1182C17.4303 55.3328 17.5814 55.5201 17.7691 55.6649L17.7821 55.6321ZM17.1291 56.5058C16.8017 56.282 16.5257 55.9904 16.3196 55.6505C16.1135 55.3105 15.982 54.9302 15.934 54.5349C15.8796 53.6732 16.158 52.8236 16.7111 52.1633C17.2012 51.4387 17.9453 50.9272 18.7943 50.7311C19.1905 50.6587 19.5976 50.6747 19.9869 50.778C20.3762 50.8813 20.7382 51.0694 21.0473 51.3289C21.374 51.562 21.6465 51.8637 21.8461 52.213C22.0456 52.5623 22.1675 52.9511 22.2032 53.3524C22.2437 54.2279 21.9545 55.0865 21.3934 55.7569C20.9183 56.4695 20.1887 56.9706 19.3559 57.1562C18.9604 57.2217 18.5555 57.2005 18.1689 57.0939C17.7823 56.9873 17.4231 56.7979 17.116 56.5387L17.1291 56.5058ZM9.90649 47.3083L15.1308 44.0234L15.4704 44.5687L15.8165 45.1206L13.8574 46.3557L15.1634 48.4054L17.1226 47.1703L17.4621 47.7156L17.8082 48.2609L12.5839 51.5457L12.2378 51.0004L11.8983 50.4486L14.2492 48.9573L12.9431 46.9075L10.5791 48.4514L10.2395 47.9061L9.90649 47.3083Z" fill="white"/>
</g>
<defs>
<clipPath id="clip0_19_972">
<rect width="360" height="70" fill="white"/>
</clipPath>
</defs>
</svg>
